<?xml version="1.0" encoding="utf-8"?>
<!-- Generator: Adobe Illustrator 21.0.2, SVG Export Plug-In . SVG Version: 6.00 Build 0)  -->
<svg version="1.1" id="Objects" xmlns="http://www.w3.org/2000/svg" xmlns:xlink="http://www.w3.org/1999/xlink" x="0px" y="0px"
	 viewBox="0 0 800 800" style="enable-background:new 0 0 800 800;" xml:space="preserve">
<style type="text/css">
	.st0{fill:#4c110a;opacity: .25;}
</style>
<g>
	<g>
		<path class="st0" d="M388.3,322.8c0.2,0.2,0.5,0.2,0.7,0.2c0.4,0,0.7-0.2,1-0.5c0.2-0.3,5.5-7.4,5.5-15.6c0-3.8-1.8-9.3-3.9-15.6
			c-2.5-7.4-5.2-15.7-5.9-23.7c-0.1-0.6-0.6-1.1-1.2-1.1s-1.2,0.5-1.2,1.1c-0.7,7.9-3.4,16.3-5.9,23.7c-2.1,6.3-3.9,11.8-3.9,15.6
			c0,8.3,4.6,14.9,4.8,15.2c0.4,0.6,1.1,0.7,1.7,0.3c0.6-0.4,0.7-1.1,0.3-1.7c0-0.1-4.3-6.3-4.3-13.8c0-3.4,1.8-8.7,3.8-14.9
			c1.7-5.1,3.6-10.7,4.8-16.4c1.2,5.6,3.1,11.2,4.8,16.3c2,6.1,3.8,11.4,3.8,14.8c0,7.4-4.9,14.1-5,14.2
			C387.7,321.6,387.8,322.4,388.3,322.8z"/>
		<path class="st0" d="M424.6,347.3c0.7,0,1.2-0.5,1.2-1.2c0-0.7-0.5-1.2-1.2-1.2c-12.7,0-18.2-5-23-9.5c-3.9-3.6-7.6-7-14.2-7
			c-0.5,0-1,0.3-1.1,0.8c-0.2,0.5-0.1,1,0.3,1.3c0,0,3,2.8,3,5.7c0,1.3-1.1,3.6-2.3,5.9c-1,2-2,4.1-2.8,6.3
			c-0.8-2.2-1.9-4.3-2.8-6.3c-1.2-2.4-2.3-4.7-2.3-5.9c0-2.9,3-5.7,3-5.7c0.4-0.3,0.5-0.9,0.3-1.3c-0.2-0.5-0.6-0.8-1.1-0.8
			c-6.5,0-10.2,3.4-14.2,7c-4.9,4.4-10.4,9.5-23,9.5c-0.7,0-1.2,0.5-1.2,1.2c0,0.7,0.5,1.2,1.2,1.2c13.6,0,19.7-5.6,24.7-10.1
			c3-2.8,5.7-5.2,9.7-6.1c-0.9,1.3-1.8,3.1-1.8,5.1c0,1.9,1.2,4.3,2.6,7c1.5,3.1,3.3,6.6,3.8,10c0,0.1,0,0.1,0,0.2
			c0,0.3,0.1,1.6,0.3,1.9c0.2,0.3,0.6,1.3,0.9,1.3h0.1c0.3,0,0.7-1.1,0.9-1.3c0.2-0.3,0.3-1.1,0.3-1.4c0,0,0-0.3,0-0.4
			c0.5-3.4,2.3-7,3.8-10.1c1.4-2.8,2.6-5.2,2.6-7.1c0-2-0.9-3.8-1.8-5.2c3.9,0.8,6.6,3.3,9.7,6C404.9,341.7,411,347.3,424.6,347.3z"
			/>
		<path class="st0" d="M589.5,333.9c0.1,0.7,0.7,1.2,1.3,1.1c0.7-0.1,1.2-0.7,1.1-1.3c-1.7-15.6,5.5-17.5,13.9-19.6
			c4.8-1.2,9.7-2.5,13.1-6.3c-0.1,11.2-2.8,19.4-7.8,24.7c-5,5.3-10.9,5.4-11,5.4c-0.7,0-1.2,0.6-1.2,1.2c0,0.7,0.5,1.2,1.2,1.2
			c0.3,0,6.9-0.1,12.7-6.1c6.1-6.3,8.9-16.5,8.5-30.4c0-0.6-0.4-1-1-1.2c-0.5-0.1-1.1,0.2-1.4,0.7c-2.7,5.6-8.1,6.9-13.8,8.4
			C597,313.8,587.6,316.2,589.5,333.9z"/>
		<path class="st0" d="M490.9,311.2c-0.6,0.2-0.9,0.8-0.8,1.4c0.1,0.6,0.6,0.9,1.2,0.9c0.1,0,0.1,0,0.2,0c7.4-1,12-3.5,14.1-7.6
			c2.4-4.6,1.5-8.7-2.4-10.9c-1-0.6-2.2-0.9-3.4-0.9c-2.4,0-4.9,1.4-5.9,3.3c-1.1,2.1-0.8,4-0.7,4.2c0.1,0.4,0.3,0.7,0.7,0.9
			c0.3,0.2,0.7,0.2,1.1,0c0.7-0.4,1.3-0.4,1.7-0.4c0.4,0,0.6,0.1,0.6,0.1c0.1,0,1.7,1,0.2,4C495.8,309.5,491,311.2,490.9,311.2z
			 M496.7,299.6c-0.3,0-0.6,0-1,0.1c0.1-0.3,0.2-0.7,0.4-1.1c0.5-1,2-2,3.7-2c0.8,0,1.5,0.2,2.2,0.6c2.8,1.6,3.3,4.2,1.5,7.7
			c-1,1.9-2.7,3.4-5.3,4.5c0.6-0.6,1.1-1.3,1.5-2.1c1.2-2.3,1-4.1,0.6-5.1c-0.4-1.1-1.3-1.9-1.8-2.2
			C498,299.8,497.4,299.6,496.7,299.6z"/>
		<path class="st0" d="M552.6,341.1c2.9,0.9,6.6,1.7,10.4,1.7c4,0,8.1-0.8,12-3.1c6.5-3.9,8.8-9.8,9.3-11.5
			c1.8-6,0.5-16.2-10.8-19.7c-8.2-2.5-13.7,2.3-15,6.5c-0.7,2.2-0.6,4.5,0.3,6.4c0.9,2,2.6,3.5,4.8,4.2c2.4,0.7,4.8,0.6,6.5-0.5
			c1.3-0.8,2.2-2,2.5-3.4c0.1-0.7-0.3-1.3-0.9-1.5c-0.7-0.1-1.3,0.3-1.5,0.9c-0.2,0.8-0.6,1.4-1.4,1.8c-1.2,0.7-2.9,0.8-4.6,0.2
			c-1.5-0.5-2.7-1.4-3.3-2.8c-0.6-1.4-0.7-3-0.2-4.7c0.9-3,5-7,12-4.9c10.3,3.2,10.5,12.3,9.2,16.7c-0.9,3.1-3.6,7.4-8.2,10.1
			c-5.5,3.3-12.4,3.7-20.5,1.2c-5.5-1.7-11.3-6.2-17.9-11.5c-3.9-3.1-7.9-6.2-12.2-9.2c-0.6-0.4-1.2-0.9-1.9-1.2
			c-0.1-0.1-0.2-0.1-0.3-0.2c-0.1-0.1-0.2-0.1-0.3-0.1c-3.4-1.8-7.9-2.8-13.1-2.8c-9.9,0-20.5,2.9-30.8,6.7c1.5-1.9,2.6-4.1,3.1-6.4
			c0.8-3.6,0.1-7.3-2-10c-3.7-4.9-9.4-6.3-14-3.5c-6.9,4.3-3.6,10.7-3.6,10.7c0.3,0.6,1.1,0.8,1.7,0.5c0.6-0.3,0.8-1.1,0.5-1.7
			c-0.1-0.2-2.3-4.4,2.7-7.5c2.9-1.8,7.4-1.6,10.7,2.9c1.6,2.2,2.2,5.1,1.5,8c-0.8,3.9-3.6,7.4-7.6,9.6c-0.7,0.3-1.4,0.6-2.1,0.9
			c-0.8,0.3-1.5,0.5-2.3,0.9c-1.8,0.8-3.6,1.5-5.4,2.2c-8.6,3.6-16.8,7-24,8.8c-2-1.8-3-4.3-3-6.7c0-2.3,0.9-4.4,2.4-5.9
			c1.8-1.8,4.4-2.7,7.5-2.7c0.7,0,1.2-0.5,1.2-1.2c0-0.7-0.5-1.2-1.2-1.2c-3.8,0-7,1.2-9.3,3.4c-2,2-3.1,4.7-3.1,7.7
			c0,2.6,0.9,5.3,2.7,7.4c-2.3,0.5-4.5,0.7-6.5,0.7c-19,0-24.1-12.6-24.1-19.2c0-4.6,2.9-13.2,13.7-13.2c7.3,0,10,5,10,8.2
			c0,3.5-2,5.6-5.3,5.6c-3.1,0-5-2.4-5.3-3.6c-0.2-0.7-0.8-1.1-1.5-0.9c-0.7,0.2-1.1,0.8-0.9,1.5c0.5,2.2,3.4,5.4,7.7,5.4
			c4.7,0,7.8-3.2,7.8-8.1c0-2.5-1.2-5.2-3.1-7.1c-1.6-1.6-4.6-3.5-9.4-3.5c-11.8,0-16.1,9.4-16.1,15.7c0,1.8,0.4,8.1,5.5,13.7
			c3.3,3.6,9.6,8,21,8c2.7,0,5.6-0.4,8.8-1.2c2.1,1.5,4.8,2.4,8.2,2.4c13.3,0,25.2-5.2,35.8-9.9c8.9-3.9,17.2-7.6,25-7.6
			c7.7,0,10.6,2.4,10.7,2.5c0.5,0.5,1.3,0.4,1.7-0.1c0.5-0.5,0.4-1.3-0.1-1.7c-0.1-0.1-3.5-3.2-12.3-3.2c-8.3,0-16.9,3.8-26,7.8
			c-10.8,4.8-22,9.7-34.8,9.7c-1.8,0-3.4-0.3-4.7-0.8c6.8-2,14.3-5.1,22-8.3c2.5-1,5-2.1,7.6-3.2c0,0,0,0,0,0
			c0.8-0.3,1.5-0.5,2.3-0.9c12.1-4.8,25-9.2,36.7-9.2c4.9,0,9,0.9,12,2.4c0,0,0,0,0.1,0.1c0.8,0.5,1.7,1.1,2.5,1.6
			c2.3,2,3.6,4.6,3.6,7.7c0,7.8-4.5,10.5-8.7,10.5c-7.4,0-8.2-5.5-8.3-5.7c-0.1-0.7-0.7-1.1-1.4-1c-0.7,0.1-1.1,0.7-1.1,1.4
			c0.4,2.7,3.1,7.8,10.7,7.8c3,0,5.7-1.1,7.7-3.1c2.3-2.3,3.5-5.7,3.5-9.8c0-1.3-0.2-2.6-0.6-3.8c2.1,1.6,4.2,3.2,6.2,4.8
			C540.7,334.6,546.6,339.2,552.6,341.1z"/>
		<path class="st0" d="M610.3,321.2c0.4-0.6,0.3-1.3-0.3-1.7c-0.6-0.4-1.3-0.3-1.7,0.3c-15.5,21.8-31.9,27.1-42.9,27.8
			c-12.3,0.7-24-4.2-32.1-13.3c-0.5-0.5-1.2-0.6-1.7-0.1c-0.5,0.4-0.5,1.2-0.1,1.7c8.1,9.1,19.5,14.2,31.7,14.2c0.8,0,1.6,0,2.4-0.1
			C577.1,349.3,594.2,343.8,610.3,321.2z"/>
		<path class="st0" d="M290.5,329c-9.1-4-17.7-7.8-26-7.8c-8.9,0-12.2,3-12.3,3.2c-0.5,0.5-0.5,1.2-0.1,1.7c0.5,0.5,1.2,0.5,1.7,0.1
			c0,0,2.9-2.5,10.7-2.5c7.8,0,16.2,3.7,25,7.6c10.5,4.6,22.5,9.9,35.8,9.9c3.4,0,6.1-0.9,8.2-2.4c3.1,0.7,6,1.2,8.8,1.2
			c11.4,0,17.7-4.3,21-8c5.1-5.6,5.5-11.9,5.5-13.7c0-6.3-4.3-15.7-16.1-15.7c-4.8,0-7.7,1.9-9.4,3.5c-1.9,1.9-3.1,4.6-3.1,7.1
			c0,4.8,3.1,8.1,7.8,8.1c4.3,0,7.1-3.2,7.7-5.4c0.2-0.7-0.2-1.3-0.9-1.5c-0.7-0.2-1.3,0.2-1.5,0.9c-0.3,1.2-2.2,3.6-5.3,3.6
			c-3.3,0-5.3-2.1-5.3-5.6c0-3.2,2.7-8.2,10-8.2c10.8,0,13.7,8.7,13.7,13.2c0,6.7-5,19.2-24.1,19.2c-2,0-4.2-0.3-6.5-0.7
			c1.8-2.1,2.7-4.7,2.7-7.4c0-2.9-1.1-5.7-3.1-7.7c-2.3-2.2-5.5-3.4-9.3-3.4c-0.7,0-1.2,0.5-1.2,1.2c0,0.7,0.5,1.2,1.2,1.2
			c3.1,0,5.8,0.9,7.5,2.7c1.6,1.5,2.4,3.6,2.4,5.9c0,2.4-1,4.9-3,6.7c-7.2-1.8-15.4-5.3-24-8.8c-1.8-0.7-3.6-1.5-5.4-2.2
			c-0.8-0.4-1.6-0.7-2.3-0.9c-0.7-0.3-1.4-0.6-2.1-0.9c-4-2.2-6.8-5.7-7.6-9.6c-0.6-3-0.1-5.9,1.5-8c3.4-4.5,7.8-4.7,10.7-2.9
			c4.9,3,3,7.1,2.7,7.5c-0.3,0.6-0.1,1.3,0.5,1.6c0.6,0.3,1.3,0.1,1.7-0.5c0-0.1,3.3-6.4-3.6-10.7c-4.6-2.8-10.3-1.4-14,3.5
			c-2,2.7-2.7,6.4-2,10c0.5,2.3,1.6,4.5,3.1,6.4c-10.3-3.8-20.9-6.7-30.8-6.7c-5.2,0-9.7,1-13.1,2.8c-0.1,0-0.2,0.1-0.3,0.1
			c-0.1,0.1-0.2,0.1-0.3,0.2c-0.7,0.4-1.3,0.8-1.9,1.2c-4.4,2.9-8.4,6.1-12.2,9.2c-6.6,5.2-12.3,9.8-17.9,11.5
			c-8,2.5-14.9,2.1-20.5-1.2c-4.6-2.7-7.3-7-8.2-10.1c-1.3-4.4-1.1-13.5,9.2-16.7c7-2.1,11,1.9,12,4.9c0.5,1.6,0.4,3.3-0.2,4.7
			c-0.6,1.4-1.8,2.4-3.3,2.8c-1.7,0.5-3.4,0.4-4.6-0.2c-0.7-0.4-1.2-1-1.4-1.8c-0.1-0.7-0.8-1.1-1.5-0.9c-0.7,0.1-1.1,0.8-0.9,1.5
			c0.3,1.5,1.2,2.6,2.5,3.4c1.8,1,4.1,1.2,6.5,0.5c2.2-0.7,3.9-2.1,4.8-4.2c0.9-1.9,1-4.2,0.3-6.4c-0.7-2.4-2.6-4.6-5-5.9
			c-2-1.1-5.4-2.1-10-0.6c-11.3,3.5-12.7,13.7-10.8,19.7c0.5,1.7,2.7,7.6,9.3,11.5c3.9,2.3,8.1,3.1,12,3.1c3.8,0,7.4-0.8,10.4-1.7
			c6-1.8,11.9-6.5,18.7-11.9c2-1.6,4.1-3.2,6.2-4.8c-0.4,1.2-0.6,2.4-0.6,3.8c0,4.1,1.2,7.5,3.5,9.8c2,2,4.7,3.1,7.7,3.1
			c7.6,0,10.3-5.1,10.7-7.8c0.1-0.7-0.4-1.3-1.1-1.4c-0.7-0.1-1.3,0.4-1.4,1.1c0,0-0.2,1.4-1.3,2.8c-1.5,1.9-3.8,2.9-7,2.9
			c-4.2,0-8.7-2.8-8.7-10.5c0-3.1,1.3-5.8,3.6-7.7c0.8-0.5,1.6-1.1,2.5-1.6c0,0,0,0,0.1-0.1c3.1-1.6,7.1-2.4,12-2.4
			c11.7,0,24.6,4.3,36.7,9.2c0.8,0.4,1.5,0.7,2.3,0.9c0,0,0,0,0,0c2.6,1,5.1,2.1,7.6,3.2c7.8,3.2,15.2,6.4,22,8.3
			c-1.3,0.5-2.9,0.8-4.7,0.8C312.5,338.7,301.4,333.7,290.5,329z"/>
		<path class="st0" d="M168.8,340.2c0.7,0,1.2-0.5,1.2-1.2c0-0.7-0.5-1.2-1.2-1.2c-0.1,0-5.9-0.1-11-5.4c-5-5.2-7.6-13.5-7.8-24.7
			c3.4,3.8,8.3,5.1,13.1,6.3c8.4,2.2,15.7,4.1,13.9,19.6c-0.1,0.7,0.4,1.3,1.1,1.3c0.7,0.1,1.3-0.4,1.3-1.1
			c1.9-17.7-7.5-20.1-15.8-22.3c-5.7-1.5-11-2.9-13.8-8.4c-0.2-0.5-0.8-0.8-1.4-0.7c-0.5,0.1-0.9,0.6-1,1.2
			c-0.5,13.9,2.4,24.1,8.5,30.4C161.9,340.1,168.5,340.2,168.8,340.2z"/>
		<path class="st0" d="M271.7,302.2c0.1,0,0.3-0.1,0.6-0.1c0.4,0,1,0.1,1.7,0.4c0.3,0.2,0.7,0.2,1.1,0c0.3-0.2,0.6-0.5,0.7-0.9
			c0-0.2,0.4-2-0.7-4.2c-1-2-3.4-3.3-5.9-3.3c-1.2,0-2.3,0.3-3.4,0.9c-3.9,2.2-4.8,6.3-2.4,10.9c2.1,4.1,6.7,6.6,14.1,7.6
			c0.1,0,0.1,0,0.2,0c0.6,0,1.1-0.4,1.2-0.9c0.1-0.6-0.2-1.2-0.8-1.4c0,0-4.8-1.7-6.6-5.1C270,303.2,271.7,302.2,271.7,302.2z
			 M269.3,307.2c0.4,0.8,0.9,1.5,1.5,2.1c-2.6-1.1-4.3-2.6-5.3-4.5c-1.8-3.5-1.3-6.1,1.5-7.7c0.7-0.4,1.4-0.6,2.2-0.6
			c1.7,0,3.2,1,3.7,2c0.2,0.4,0.3,0.8,0.4,1.1c-0.4-0.1-0.7-0.1-1-0.1c-0.7,0-1.3,0.1-1.7,0.3c-0.6,0.3-1.4,1-1.8,2.2
			C268.4,303.2,268.1,304.9,269.3,307.2z"/>
		<path class="st0" d="M205.8,350c12.2,0,23.6-5.1,31.7-14.2c0.4-0.5,0.4-1.3-0.1-1.7c-0.5-0.4-1.3-0.4-1.7,0.1
			c-8.1,9.1-19.8,14-32.1,13.3c-11-0.6-27.4-5.9-42.9-27.8c-0.4-0.5-1.2-0.7-1.7-0.3c-0.5,0.4-0.7,1.2-0.3,1.7
			c16.1,22.6,33.2,28.1,44.7,28.8C204.2,350,205,350,205.8,350z"/>
	</g>
</g>
</svg>
