<?xml version="1.0" encoding="utf-8"?>
<!-- Generator: Adobe Illustrator 21.0.2, SVG Export Plug-In . SVG Version: 6.00 Build 0)  -->
<svg version="1.1" id="Слой_1" xmlns="http://www.w3.org/2000/svg" xmlns:xlink="http://www.w3.org/1999/xlink" x="0px" y="0px"
	 viewBox="0 0 288 560" style="enable-background:new 0 0 288 560;" xml:space="preserve">
<g>
	<path d="M154,425c-0.7-0.3-1.3-0.8-2-1c-5-1.2-9.2-3.5-12.9-7.1c-4.5-4.3-5.7-13.3-0.8-18c3.5-3.3,6.9-6.7,10.6-9.8
		c2.2-1.9,4-3.9,5.3-6.5c2.4-4.8,2-7.8-1.8-11.7c-0.8-0.8-1.7-1.6-2.6-2.4c-6.7-5.6-13.1-11.4-15-20.5c-3.7-0.4-7.2,2.5-10.8,0.1
		c1.2-4.7,2.4-9.3,3.6-14.4c-3-1.4-5.6-2.7-8.3-3.9c-11.1-5.2-22.4-10.1-33.4-15.5c-13.8-6.9-26.3-15.5-36.8-27
		c-11.9-13-20-28-24.1-45.2c-1-4.3-1.5-8.8-2.3-13.2c-0.1-0.4-0.5-0.7-0.8-1c0-6,0-12,0-18c1.9-2.5,1.2-5.6,1.8-8.4
		c4.1-20.3,13.3-37.5,29.6-50.5c10.1-8,21.3-13.4,34.4-14.2c0.7,0,1.4-0.6,2.1-0.9c1,0,2,0,3,0c0.5,0.3,1,0.8,1.6,0.8
		c3.4,0.4,6.9,0.7,10.4,1.1c10.9,1.2,20.9,5.1,30.2,10.7c10,5.9,18.5,13.5,25.7,22.6c1.1,1.4,2,3,3.8,3.8c4.8-5.2,10.1-9.5,16-13
		c15.1-8.8,30.9-11.6,47.8-5.9c4.6,1.5,8.5,4.5,12.6,6.9c9.5,5.4,15.9,13.3,20.1,23.3c1.1,2.6,2.2,5.2,3.3,7.8
		c2.3,5.6,3.7,11.3,3.7,17.4c0,1.2,0.5,2.4,0.8,3.6c0,2.3,0,4.7,0,7c-0.3,0.7-0.8,1.4-0.8,2.1c-1.6,17.7-7,34.1-17,48.8
		c-9.6,14.1-21.8,25.5-36.5,34.1c-4.6,2.7-9.4,5-14,7.6c-3.1,1.7-3.4,2.7-1.1,5.2c1.3,1.4,3,2.5,4.6,3.7c1.3,1,2.6,1.8,4.2,2.9
		c-3.8,5.2-9.4,4.4-14.4,5.8c0.2,6.1-2.7,11.1-5.8,16c-1.8,2.8-3.2,5.8-4.3,9c-1.9,5.8,0,10.9,5,14.4c3.6,2.6,7.7,3.9,12,4.5
		c3.6,0.5,7.2,0.9,10.7,1.3c0.5,3.2-0.1,4.5-2.2,4.2c-6.4-0.8-12.9-0.9-19-3.4c-10.8-4.3-13.5-15.4-10-24.4c1-2.4,2.6-4.6,4-6.9
		c3-4.7,5.8-9.3,4.6-15.4c-2.7-2-6.9-0.9-9.7-4.2c1.1-1.4,2.2-2.7,3.2-4.1c1.7-2.3,3.3-4.6,4.9-6.9c1.1-1.6,1-3-0.3-4.5
		c-6.4-7.9-12.7-15.8-19.3-23.9c-2.1,1.7-2.6,4-3.6,5.9c-2.8,5.7-5.3,11.5-8.3,17c-4.2,7.8-9,15.2-17.1,20.3
		c2.4,2.9,5.6,3.9,8.3,5.6c1.1,0.7,2.5,1.1,3.6,1.8c1.7,1.1,1.7,3-0.2,4c-1.9,1-4,1.6-6,2.5c-1.5,0.6-3,1.3-4.6,2
		c-0.2,3.9,2,6.4,4.3,8.8c3.6,3.7,7.4,7.2,11.1,10.8c7.3,7,7.2,13.3,0.7,21c-2.8,3.3-6.2,6-9.3,9c-1,0.9-2.1,1.7-2.8,2.8
		c-1.6,2-4,3.7-3.4,6.8c0.9,4.3,2,8.6,6.2,10.9c2.6,1.4,5.5,2.5,8.4,3c4.6,0.7,9.2,0.8,13.9,1.1c0.2,0,0.3,0,0.5,0
		c3.2,0.2,3.4,0.4,2.6,4C166,425,160,425,154,425z M161,178.7c-0.4-0.7-0.6-1.2-1-1.6c-1.5-1.8-3-3.6-4.5-5.4
		c-10-11.5-21.7-20.6-35.9-26.2c-9.3-3.6-18.9-5.9-29.1-4.8c-14.1,1.5-26.3,7.1-36.7,16.3c-14.6,12.8-23.6,28.8-26.1,48.4
		c-2.4,19,0,37,8.2,54.4c8.4,17.9,21.6,31.4,37.9,42.1c16.7,11.1,35.1,18.8,53.4,26.7c2.5,1.1,5.2,1.1,7.7-0.5
		c1.7-1.1,3.4-2.1,4.9-3.3c5.2-4.3,9.2-9.6,12.2-15.6c3.7-7.3,7-14.7,10.7-21.9c1.5-3,1.6-5.2-0.4-8.2c-5.5-8.1-10.1-16.8-13.6-26
		c-4.5-11.6-5.8-23.6-4.4-35.8c1.2-10.7,4.8-20.7,10.8-29.7C156.9,184.7,158.9,181.8,161,178.7z M148.7,226.9
		c0.2,2.4,0.1,6.1,0.7,9.7c1.7,10.6,5.1,20.6,10.4,29.9c3,5.2,6.4,10.1,9.7,15.1c6.2,9.5,13.7,18,20.8,26.8c3.1,3.9,4.3,4.2,8.9,1.9
		c4.2-2.1,8.3-4.2,12.3-6.6c16.3-9.6,29.8-22.2,39.6-38.5c4.1-6.9,6.6-14.4,9.1-22c4.9-15,4.5-30.1,1.5-45.3
		c-2.7-13.8-10.7-24.1-22-32.1c-1.4-0.9-2.7-2-4.3-2.5c-8-2.6-15.7-6.5-24.5-4.6c-15.5-0.3-28.6,5.6-39.9,15.7
		C156,188,148.5,205.3,148.7,226.9z M143.5,340.2c-3.6-2.4-6.8-4.6-9.9-6.7c-2.4,3.8-3.1,6.3-3.1,10.6
		C134.8,343.5,139,342.5,143.5,340.2z M192.4,316.9c-1.9,2.9-3.7,5.6-5.8,8.7c4.3,0.9,8,2.2,12.1,1
		C196.7,323.6,194.8,320.5,192.4,316.9z"/>
	<path d="M133.2,181.1c-2.4,0.1-3.3-1.5-4.5-2.6c-6.8-6.3-14.3-11.3-23.1-14.2c-8-2.6-15.9-2.3-23.9,0.2c-1.1,0.4-2.2,0.9-3.2,1.3
		c-2.3,0.9-3.9,0.6-4.3-0.8c-0.6-2.3,1.2-2.8,2.8-3.4c1.4-0.6,2.8-1.1,4.2-1.6c15.7-4.5,29.8-0.7,42.8,8.5c3,2.1,5.6,4.7,8.3,7.2
		C134.1,177.4,134,177.5,133.2,181.1z"/>
	<path d="M139.8,184.3c0.3,0.1,0.8,0.1,1.2,0.4c2,1.6,3.6,3.4,4,6c0.1,0.6-0.4,1.5-1,2c-0.3,0.3-1.4,0.1-1.7-0.3
		c-1.4-1.6-2.9-3.2-4-4.9C137.4,186.2,138.3,184.5,139.8,184.3z"/>
	<path d="M217.1,171.9c1.5-2.1,3.1-2.1,4.8-1.8c5,1,9.4,3.1,13.3,6.5c8.3,7.1,13.9,15.8,15.6,26.9c1,6.6,1.4,13.2,1.1,19.8
		c-0.1,1.6-0.6,3.2-0.9,4.8c-3.5,0.7-4,0.3-3.9-2.8c0.2-5,1.3-10,0.7-14.8c-1.9-15.1-7.3-28.3-22.6-34.9c-1.7-0.7-3.5-0.9-5.2-1.6
		C218.9,173.6,218,172.6,217.1,171.9z"/>
	<path d="M246.7,236.6c1.5,1.4,2.7,2,2.8,2.7c0.3,2.9,0.4,5.9-1.2,8.6c-0.4,0.6-1.7,1.1-2.5,0.9c-1-0.2-1.4-1.1-1.1-2.3
		c0.3-1.8,0.2-3.7,0.5-5.4C245.4,239.8,246,238.6,246.7,236.6z"/>
</g>
</svg>
