<?xml version="1.0" encoding="utf-8"?>
<!-- Generator: Adobe Illustrator 21.0.2, SVG Export Plug-In . SVG Version: 6.00 Build 0)  -->
<svg version="1.1" id="Слой_1" xmlns="http://www.w3.org/2000/svg" xmlns:xlink="http://www.w3.org/1999/xlink" x="0px" y="0px"
	 viewBox="0 0 288 560" style="enable-background:new 0 0 288 560;" xml:space="preserve">
<g>
	<path d="M121,391c-15,0-30,0-45,0c-0.7-0.3-1.4-0.8-2.1-0.8c-11.3-0.4-22.6-0.6-33.8-1.1c-8.3-0.3-16.6-0.8-24.9-1.2
		c-0.9-0.1-1.9-0.5-2.7-0.7c-0.2-0.7-0.4-1.2-0.4-1.6c0-10.1,0-20.3-0.1-30.4c0-5.2,0.1-10.3-0.2-15.5c-0.4-8.9-1.2-17.9-1.5-26.8
		C9.8,298.6,9.4,284.3,9,270c-0.1-5.3-0.1-10.6-0.2-16c0-1-0.5-2.1-0.8-3.1c0-1.7,0-3.3,0-5c1.2-0.6,1.7-2,3.6-1.8
		c10.2,1.1,20.4,2.1,30.7,2.8c8.3,0.6,16.6,0.8,24.9,0.9c12.6,0.2,25.3,0.1,37.9,0.1c1.8,0,3.6-0.2,5.4-0.2
		c-1.6-1.4-3.2-2.3-4.9-2.9c-5.8-2.2-11-5.5-15.9-9.2c-6.5-5-12-11-14.8-19c-3.7-10.5-2.4-20.6,2.9-30.2c3.2-5.8,7.5-10.6,14-12.9
		c2.4-0.8,4.8-1.8,7.2-2.6c1,0,2,0,3,0c0.3,0.3,0.7,0.8,1.1,0.8c9.3,1.1,16.3,5.9,21.8,13.4c5.9,8,9.5,17.1,12,26.6
		c0.3,1.3,0.5,2.7,0.7,4c1.6-2.8,2.5-5.6,3.4-8.3c2.9-8.4,7.3-16,14-22.1c4.2-3.8,9-6.3,14.5-7.3c6.6-1.2,12.4,1.4,17.6,5.3
		c5.1,3.8,8.3,9,10.6,14.8c2.1,5.3,3.3,10.9,3,16.5c-0.5,9.9-3.8,18.8-10.9,26.1c-0.7,0.7-1.2,1.7-2.1,3c1.7,0,2.6,0.1,3.6,0
		c10.7-0.9,21.5-1.8,32.2-2.7c11.9-1,23.8-2.1,35.7-2.9c3.5-0.3,6.9,0,10.9,0c0.2,1.9,0.5,3.6,0.6,5.4c0.2,8-0.2,15.9,0.9,23.9
		c1.7,12.7,2.9,25.4,4.4,38c0.4,3.3,0.6,6.6,1.2,9.9c2,12.1,3.5,24.3,3.8,36.6c0,0.7,0.6,1.3,0.8,2c0,9.3,0,18.7,0,28
		c-1.6,0.3-3.1,0.8-4.7,0.9c-2,0.2-4,0-6,0.1c-7.4,0.6-14.9,1.2-22.3,1.9c-4.8,0.4-9.6,0.8-14.4,1.2c-8.3,0.6-16.5,1.3-24.8,1.8
		c-8.3,0.5-16.6,0.7-24.9,1c-9.5,0.3-18.9,0.7-28.4,0.9c-11,0.2-22,0.3-33,0.5C122.7,390.2,121.8,390.7,121,391z M121.9,331
		c-1-0.1-1.5-0.2-2-0.2c-22.6,0.1-45.3,0.1-67.9,0.3c-9.3,0.1-18.6,0.6-27.9,1.1c-2.9,0.1-5.8,0.7-9.1,1.2c-0.1,1.8-0.2,3.4-0.2,5.1
		c0.1,7.5,0.1,15,0.4,22.5c0.3,6.8,1.2,13.5,1.7,20.3c0.2,2.1,1.3,2.8,3.2,3c7.8,0.6,15.5,1.5,23.3,1.8c15.6,0.5,31.3,0.9,46.9,1
		c11.1,0.1,22.2-0.4,33.7-0.6C124.3,367.7,122.7,349.5,121.9,331z M171.8,385c1.5,0,2.4,0,3.4,0c5-0.2,9.9-0.6,14.9-0.8
		c10.6-0.4,21.3-0.6,31.9-1.2c10.8-0.6,21.5-1.4,32.3-2.1c5.3-0.3,10.6-0.5,15.9-0.9c5.3-0.4,7.9-2.9,7.8-8.3
		c-0.1-7.1-0.5-14.3-0.9-21.4c-0.5-8.1-1.3-16.2-2-24.7c-2.4-0.2-4.5-0.6-6.6-0.5c-5.3,0.4-10.5,1.3-15.8,1.6
		c-9.6,0.5-19.3,1-28.9,1c-14,0-28,0-41.9,1.2c-4.6,0.4-9.1,1.5-13.6,2.2c0,2.6-0.2,4.8,0,6.9c0.8,8.8,1.8,17.5,2.5,26.3
		C171.2,371.1,171.4,377.7,171.8,385z M164.7,294.2c6.7-0.7,12.6-1.4,18.5-1.8c12.2-0.8,24.5-1.5,36.8-2.2c3-0.2,6,0,9-0.3
		c7.1-0.5,14.2-1.2,21.3-1.7c5.8-0.4,11.6-0.8,17.4-1.3c0.7-0.1,1.5-0.5,1.9-0.7c-0.6-7.6-1.1-14.9-1.6-22.1
		c-0.5-7.2-0.9-14.5-1.4-21.9c-3.4,0-6.3-0.2-9.3,0c-6.3,0.5-12.5,1.2-18.8,1.7c-5.8,0.5-11.6,0.8-17.4,1.3
		c-11.4,0.9-22.8,2-34.2,2.9c-6.1,0.5-12.3,0.6-18.4,1c-4.7,0.3-5.5,1-5.4,5.7c0.2,6.8,0.6,13.6,0.9,20.4
		C164.1,281.3,164.4,287.4,164.7,294.2z M118.7,251.8c-1.5,0.1-2.6,0.2-3.8,0.2c-22.1-0.3-44.2,0.8-66.3-0.9
		c-7.8-0.6-15.6-0.8-23.4-1.3c-1.1-0.1-2.3-0.4-3.4-0.5c-3.2-0.4-6.4-1-9.4,0c0.2,2.8,0.4,5.3,0.5,7.8c0.1,9.3,0.1,18.6,0.3,27.9
		c0.1,3.3,0.5,6.5,0.8,10.1c2.4,0,4.3,0,6.3,0c19.3-0.3,38.6-0.6,57.8-0.8c12.6-0.1,25.3-0.1,37.9-0.2c1.3,0,2.5-0.2,4.1-0.3
		C119.7,279.8,119.2,266.1,118.7,251.8z M167.7,384.8c0.1-1,0.2-1.5,0.2-2c-0.5-6.6-1.1-13.2-1.6-19.8c-0.8-11.1-1.5-22.2-2.4-33.3
		c-1.1-13.2-2.7-26.4-3.6-39.6c-0.7-11.1-0.8-22.3-1.1-33.4c-0.1-2.1,0-4.3,0-6.5c-2.2,0-4,0-5.7,0c-0.2,0.7-0.5,1.2-0.5,1.6
		c0.1,17.6,0.1,35.3,0.2,52.9c0,3,0.5,5.9,0.7,8.9c0.1,1.3,0.1,3-1.8,2.9c-1.7,0-2-1.5-2-2.9c0-0.2,0-0.3,0-0.5
		c-0.3-8.1-0.8-16.3-1-24.4c-0.3-12.1-0.5-24.3-0.8-36.4c0-0.6-0.2-1.3-0.4-1.9c-8.3,1.2-16.6-0.3-25.2,1.8c0.4,6,0.8,11.8,1,17.6
		c0.5,11.3,0.8,22.6,1.2,33.9c0.4,9.6,0.8,19.3,1.2,28.9c0.5,9.8,1.2,19.6,1.6,29.3c0.3,6.8,0.2,13.7,0.3,20.5
		c0,1.3,0.2,2.5,0.3,3.6c4.7,0,9.1,0,13.4,0c4.4-0.1,8.9,0.2,13.4-0.2c-0.4-7-0.8-13.4-1.2-19.9c0-0.5-0.4-1-0.4-1.4
		c-0.1-1.5-0.1-3-0.2-4.5c-0.1-1.9,1.1-2.5,3.2-2.6c2.7,9.3,0.7,19.1,3.3,28.4C162.6,385.5,165,385.2,167.7,384.8z M270,290.5
		c-8.8,0.8-16.9,1.7-25,2.3c-9.9,0.7-19.9,1.3-29.8,1.9c-13.3,0.8-26.5,1.5-39.8,2.3c-3.4,0.2-6.8,0.9-10.4,1.4
		c0.4,5,0.7,9.6,1.2,14.2c0.4,4.7,1,9.4,1.5,14.5c1.8-0.2,3.1-0.3,4.3-0.5c2.9-0.5,5.9-1.2,8.8-1.4c8.3-0.5,16.6-0.9,24.9-1.1
		c10.5-0.3,20.9,0.3,31.4-0.7c10.1-1,20.3-0.9,30.4-1.4c2.1-0.1,4.2-0.6,6.7-0.9c-0.9-6.6-1.7-12.7-2.5-18.9
		c-1.2-0.1-1.8-0.2-2.5-0.1c-5.8,0.3-11.6,0.7-17.4,1.1c-6.8,0.4-13.6,0.7-20.4,1.2c-10.2,0.8-20.5,1.9-30.7,2.5
		c-8.3,0.4-16.7,0.3-25,0.3c-0.8,0-1.8,0-2.4-0.4c-0.6-0.4-1.1-1.2-1.2-1.9c-0.1-0.4,0.7-1,1.3-1.3c0.4-0.2,1-0.2,1.4-0.2
		c9-0.3,17.9-0.5,26.9-0.9c9.3-0.4,18.6-0.8,27.9-1.4c12.4-0.8,24.8-1.9,37.2-2.8c1.3-0.1,2.6-0.3,4.2-0.4
		C270.8,295.2,270.5,293.1,270,290.5z M119.9,298c-1.5,0-2.8,0-4.1,0c-6,0.2-11.9,0.7-17.9,0.7c-26.6,0.2-53.3,0.2-79.9,0.3
		c-1.3,0-2.5,0.2-3.7,0.2c0,2.3,0,4.2,0,6.4c2.1,0.2,3.9,0.3,5.7,0.4c4.1,0.3,8.3,0.6,12.4,0.7c2.2,0.1,4.3,0.1,6.5-0.1
		c3-0.2,5.9-0.6,8.9-0.7c5.7-0.2,11.3-0.2,17-0.3c3.8-0.1,7.5-0.2,11.3-0.1c0.9,0,1.8,1,3.2,1.8c-1.2,0.7-1.8,1.4-2.5,1.5
		c-4.1,0.4-8.3,0.8-12.4,0.9c-5.5,0.2-11,0.2-16.5,0.3c-8,0-15.9,0-23.9,0c-3.3,0-6.5-0.6-9.3,0.2c0,6.3,0,12.3,0,18.6
		c35.9-3.3,71.5-0.9,107.4-2.4C120.2,317.1,122,307.6,119.9,298z M133.8,236.2c0,0,0.3-0.4,0.3-0.9c0.2-8,0.5-16-1.2-23.9
		c-3.2-14.5-10.7-25.9-23.1-34.1c-5.3-3.5-14.8-4.3-20.2,1.7c-3.4,3.8-6.9,7.8-9.5,12.2c-2.4,4.1-3.6,8.9-3.1,13.9
		c0.5,5.5,2.1,10.8,5.2,15.4c8,11.7,19.3,19,32.5,23.5c0.3,0.1,0.8-0.3,1.5-0.5c-1.7-2-3.1-3.8-4.7-5.5
		c-6.5-6.9-10.1-15.2-11.3-24.5c-0.3-2.7,0.1-5.7,0.9-8.3c1.3-4.1,5-6,9.1-4.9c3.6,0.9,6.9,2.4,9.6,5.1c4.1,4.1,7.3,8.7,9.1,14.1
		C130.8,225.1,132.3,230.8,133.8,236.2z M169,244.9c2.9,0,5.4-0.1,7.9,0c2.5,0.1,4.5-0.9,6.2-2.7c2.3-2.6,4.9-5,6.9-7.9
		c4.2-5.9,6.9-12.5,7-19.9c0.2-10.1-3.4-19-10.6-26c-6.6-6.5-14-9.6-25.2-2.7c-7.2,4.4-11.3,11.1-14.7,18.4
		c-3.3,7.1-4.8,14.8-6.3,22.4c-0.6,2.9-0.8,6-1.1,9c1.4-1.2,2-2.5,2.8-3.8c3.6-6.4,7.2-12.8,12.8-17.7c4.2-3.7,8.7-6.4,14.7-6.3
		c7.6,0.2,11.5,4,11.7,11.8c0.1,6-1.8,11.4-5.3,16.3C173.5,238.8,171.4,241.6,169,244.9z M139.5,247.1c3-0.3,5.1-0.6,7.2-0.7
		c2.2-0.2,4.3-0.2,6.5-0.3c9.2-0.2,9.2-0.2,15.3-6.9c0.2-0.2,0.4-0.5,0.7-0.7c4.1-4.6,6.6-9.9,7.6-15.9c0.3-2.2,0-4.7-0.7-6.8
		c-1.1-3.3-2.6-4-6-4c-5.4,0-9.5,2.7-13.2,6.1C148.2,225.6,143.6,235.6,139.5,247.1z M130.7,246.7c-0.6-4.5-1-8.9-1.7-13.3
		c-1.3-7.4-3.7-14.4-8-20.7c-2.8-4.1-6.5-7-11.5-8.2c-3-0.7-4.6-0.1-5,2.9c-0.4,3.1-0.4,6.3,0.1,9.4c1.1,6.5,4.7,12,8.9,17
		c3.9,4.7,8.1,9.2,12.3,13.9C127.3,247.4,128.9,247.1,130.7,246.7z"/>
	<path d="M155.8,343c-1.4-0.1-2.3-0.2-3.3-0.2c-0.5-4.3-0.9-8.4-1.3-12.5c-0.1-1.6,0.9-2.4,2.7-3.1C156,332.2,156.3,337.2,155.8,343
		z"/>
	<path d="M102.3,305.6c-0.5,1.8-0.5,3-1,3.3c-2.3,1.5-7.8,1.3-11.1-0.3C93.3,304.2,97.7,306.6,102.3,305.6z"/>
	<path d="M92.1,203.3c0.1-7.9,4.1-10.8,10.3-12.9c0.6-0.2,1.4-0.3,1.9,0c0.6,0.4,1.2,1.1,1.4,1.8c0.1,0.4-0.5,1.3-0.9,1.5
		c-0.9,0.4-1.9,0.4-2.8,0.9c-3.7,1.7-6.4,4.2-6.1,8.6c0.1,2.8-1,3.9-2.2,3.6C91.6,206.2,92.3,204.4,92.1,203.3z"/>
	<path d="M147.9,218.9c-2.2-1-2.5-2.3-1.5-3.9c6.4-10.1,14.8-16.9,27.4-17c1,0,2,0.5,3,0.8c-0.5,2.2-1.5,3.1-3.2,3.1
		c-10.1,0.1-17,5.6-22.6,13.2C149.9,216.5,148.8,217.7,147.9,218.9z"/>
	<path d="M184.4,202.8c3.4,3,4.7,6.8,5.5,10.9c0.1,0.8,0.2,1.8-0.1,2.4c-0.5,0.7-1.4,1.4-2.2,1.5c-0.4,0.1-1.4-1-1.4-1.6
		c-0.2-3.7-1.4-7-3.5-10.1C181.6,204.4,182.6,203.5,184.4,202.8z"/>
</g>
</svg>
