<?xml version="1.0" encoding="utf-8"?>
<!-- Generator: Adobe Illustrator 21.0.2, SVG Export Plug-In . SVG Version: 6.00 Build 0)  -->
<svg version="1.1" id="Слой_1" xmlns="http://www.w3.org/2000/svg" xmlns:xlink="http://www.w3.org/1999/xlink" x="0px" y="0px"
	 viewBox="0 0 288 560" style="enable-background:new 0 0 288 560;" xml:space="preserve">
<g>
	<path d="M149.8,142.5c11.7,4.5,19.5,13,24.3,24.4c2.9,6.9,4.2,14.2,4.5,21.7c0.8,15.4-1.7,30.2-7.5,44.6
		c-6.9,17.2-14,34.4-23.3,50.8c0,5,0,10.3,0,16.2c4.4-3.8,8.3-7,10.2-12.3c1.2-3.5,1.8-7.4,4.7-10.2l-0.1-0.1c-1,3.7-2,7.4-3.1,11.7
		c1.5-0.5,2.7-0.7,3.7-1.1c14.1-6.1,28.3-12,42.1-18.6c11-5.3,20.8-12.6,29.1-21.7c9.6-10.5,15.1-22.5,12.4-37.2
		c-0.3-1.6-0.3-3.2-0.5-4.5c-6.3,5.2-12.6,10.5-19,15.7c-0.9,0.7-2.1,0.9-3.2,1.4l0.2,0.1c5.4-7.2,10.7-14.5,17.2-20.7
		c-9.7-3.9-21.1-1.1-29.9,3.8c-6.8,3.8-12.8,8.8-17.9,14.8c-6.9,7.9-13,16.3-17.7,25.8c-0.3,0.7-1.1,1.2-1.6,1.8l0.1,0.1
		c1.1-3.1,1.9-6.4,3.3-9.4c5.1-10.8,11.9-20.5,20.9-28.4c6.3-5.5,13.4-9.7,21.7-11.7c5.8-1.4,11.6-1.2,17.3,0.6
		c3.5,1.1,6.9,2.3,11.5,0.8c-1.9,3.6-1.2,6.5-0.3,9.4c4.5,13.9,0.9,26.1-7.6,37.3c-9,11.9-20.3,21-34,27.1
		c-15.8,7.1-31.9,13.2-47,17.7c-4.9,4.3-8.8,7.7-12.7,11.2c0,17.1,0,33.9,0,50.7c0,2.8,0.2,5.7,0.1,8.5c0,1-0.7,2-1.1,3
		c-2.4-0.4-2.6-1.7-2.5-3.2c0.5-15.2,1.1-30.4,1.5-45.6c0.1-4.2,0-8.5,0-13c-3.4-3.2-6.7-6.9-10.5-10c-2-1.6-4.7-2.2-7.1-3.4
		c-1.5-0.7-2.9-1.6-4.4-2.4l-0.1,0.1c2.3,0.5,4.7,1,7.5,1.6c-0.4-1.2-0.6-2.1-1-3.1c-6.4-16.5-13.1-32.8-21.8-48.2
		c-5.8-10.2-13-19.4-22.3-26.7c-9.1-7.2-19.3-11-31.1-9.7c-1.2,0.1-2.5,0.3-3.7,0.5c-0.7,0.1-1.3,0.5-1.6,0.7
		c5.1,6.2,10.2,12.3,15.2,18.5c0.3,0.4,0.3,1,0.5,1.5c0,0-0.2,0.2-0.2,0.2c-2.1-1.5-4.4-2.9-6.4-4.5c-4.6-3.8-9.1-7.7-13.6-11.4
		c-4,17,2.4,31.1,14.1,43.3c10,10.4,21.8,18.4,34.9,24.5c2.8,1.3,5.5,2.9,8.2,4.4l0.1-0.1c-0.5,0-1.1,0.2-1.6,0
		c-12.8-5.1-25.8-10-36.6-18.8c-8.5-6.8-15.8-14.7-20.1-24.9c-3.4-8.1-4.4-16.3-1.5-24.8c1-3,1.2-6.2,1.9-9.8
		c5,0.5,10.1-1.6,15.4-2.2c10.9-1.2,21,1.3,29.9,8.1c12.4,9.4,21.8,21.2,28.3,35.2c6.4,13.8,12.1,27.9,16.1,42.5
		c1.8,6.4,5.6,10.8,10.7,14.5c1.5-6.6,0.8-14-1.7-19.4c-3.2-7.1-6.3-14.2-9.3-21.4c-0.5-1.1-0.5-2.3-0.8-3.5c0,0-0.1,0.1-0.1,0.1
		c0.7,1.1,1.6,2.2,2.2,3.4c2.9,5.9,5.7,11.8,8.6,17.6c0.5,1,1.3,1.7,2.2,2.9c0.7-1.4,1.3-2.4,1.7-3.3c6.1-15.4,12.5-30.8,18.1-46.4
		c5.6-15.6,7.9-31.9,6.5-48.5c-1.2-14.3-6.8-26.6-19.1-35.1C151.8,144.8,150.9,143.5,149.8,142.5
		C149.8,142.4,149.8,142.5,149.8,142.5z"/>
	<path d="M129.6,247.6c-0.4-0.3-0.9-0.5-1.1-0.9c-5.2-12.5-10.7-24.9-13.2-38.4c-2.8-14.8-2.4-29.4,3.4-43.6c2.7-6.7,6.4-12.5,13-16
		c3.2-1.7,5.7-4.8,9.6-5.1l-0.1-0.1c-0.7,0.7-1.3,1.6-2.2,2.1c-12.4,8.3-18.6,20.4-19.9,34.7c-1.6,17.5-0.3,34.9,5.7,51.7
		C126.7,237.1,128.1,242.4,129.6,247.6L129.6,247.6z"/>
	<path d="M142.4,142.5c1.2-1.7,2.3-3.4,3.6-5.3c1.2,1.8,2.5,3.5,3.7,5.2l0.1-0.1c-0.5,0.1-1,0.2-1.6,0.4c1,11.1-1.2,22-2.1,33
		c-0.7-1.8-1.3-3.6-1.4-5.4c-0.5-8.3-0.9-16.5-1.4-24.8c-0.1-1.1-0.7-2.1-1-3.2L142.4,142.5z"/>
	<path d="M132.9,255c-2.1-2-3.1-4.5-3.2-7.4l0,0C131.6,249.7,132.6,252.2,132.9,255L132.9,255z"/>
	<path d="M162.7,277.5c0.1-1.1-0.6-2.6,1-3.2l-0.2-0.1c-0.3,1.1-0.7,2.1-1,3.2L162.7,277.5z"/>
	<path d="M104.1,280.7c1.1,0.3,2.1,0.7,3.2,1l0.2-0.2c-1.1-0.3-2.1-0.7-3.2-1L104.1,280.7z"/>
	<path d="M114.7,284.9c1.1,0.3,2.1,0.7,3.2,1l0.1-0.1c-1.2,0-2.5,0.6-3.2-1L114.7,284.9z"/>
	<path d="M123.3,287.9c-1.1-0.3-2.1-0.7-3.2-1L120,287c1.2-0.1,2.6-0.6,3.2,1L123.3,287.9z"/>
	<path d="M174.2,248.7c-0.4,0.7-0.7,1.4-1.1,2.1l0.1,0.1C173.6,250.1,173.9,249.4,174.2,248.7C174.3,248.7,174.2,248.7,174.2,248.7z
		"/>
	<path d="M173.1,250.7c0,0.9,0.6,2.1-1.1,2.1l0.1,0.1c0.4-0.7,0.7-1.4,1.1-2.1L173.1,250.7z"/>
	<path d="M172,252.8c0,0.7,0,1.3,0,2c-0.2,0-0.4-0.1-0.6-0.1c0.2-0.6,0.5-1.1,0.7-1.7L172,252.8z"/>
	<path d="M170.1,258.3c0.1-0.6,0.2-1.1,0.1-0.5c0.4-0.5,0.1-0.1-0.2,0.3C169.9,258.1,170.1,258.3,170.1,258.3z"/>
	<path d="M169.9,258.1c-0.1,0.6-0.2,1.1-0.1,0.5c-0.4,0.5-0.1,0.1,0.2-0.3L169.9,258.1z"/>
	<path d="M167.5,263.8C167.5,264.4,167.5,264.7,167.5,263.8C167.3,264.7,167.3,264.4,167.5,263.8z"/>
	<path d="M165.1,270.5c0-0.4,0.1-0.8,0.1-1.2c0.1,0,0.2,0,0.2,0c0,0.4-0.1,0.8-0.1,1.2C165.2,270.6,165.1,270.5,165.1,270.5z"/>
	<path d="M163.7,274.3c0.1-0.6,0.1-1.3,0.2-1.9c0.1,0.1,0.3,0.1,0.4,0.2c-0.3,0.5-0.5,1-0.8,1.6L163.7,274.3z"/>
	<path d="M101.9,279.6c0.7,0.4,1.4,0.7,2.1,1.1l0.1-0.2c-0.7-0.4-1.4-0.7-2.1-1.1L101.9,279.6z"/>
	<path d="M109.5,282.6c-0.7-0.4-1.4-0.8-2-1.1c0,0-0.2,0.2-0.2,0.2c0.7,0.4,1.4,0.7,2.1,1.1C109.3,282.8,109.5,282.6,109.5,282.6z"
		/>
	<path d="M109.3,282.8c0.7,0.1,1.3,0.1,2,0.2c-0.1,0.2-0.1,0.4-0.2,0.5c-0.5-0.3-1.1-0.6-1.6-0.9
		C109.5,282.6,109.3,282.8,109.3,282.8z"/>
	<path d="M114.8,284.7c-0.7-0.1-1.3-0.1-2-0.2c0.1-0.2,0.2-0.4,0.2-0.6c0.5,0.3,1.1,0.6,1.6,0.9
		C114.7,284.9,114.8,284.7,114.8,284.7z"/>
	<path d="M117.9,285.9c0.7,0.4,1.4,0.7,2.1,1.1l0.1-0.1c-0.7-0.4-1.4-0.7-2.1-1.1L117.9,285.9z"/>
	<path d="M141.4,143.6c0.4-0.4,0.7-0.7,1.1-1.1l-0.1-0.1c-0.3,0.4-0.7,0.7-1,1.1C141.3,143.5,141.4,143.6,141.4,143.6z"/>
	<path d="M65.9,224.2c-0.4-0.3-0.8-0.6-1.2-0.9c0,0,0.2-0.2,0.2-0.2c0.3,0.4,0.6,0.8,0.8,1.3C65.8,224.3,65.9,224.2,65.9,224.2z"/>
	<path d="M224.1,223c-0.1,0.2-0.2,0.5-0.2,0.5c0-0.1,0.2-0.2,0.3-0.4L224.1,223z"/>
	<path d="M65.8,224.3c0.3,0.1,0.6,0.2,0.8,0.3c-0.2-0.1-0.5-0.3-0.7-0.4L65.8,224.3z"/>
	<polygon points="168.4,262.3 168.3,261.9 168.5,261.9 	"/>
	<polygon points="166.3,267 166.4,267.4 166.2,267.4 	"/>
</g>
</svg>
