<?xml version="1.0" encoding="utf-8"?>
<!-- Generator: Adobe Illustrator 21.0.2, SVG Export Plug-In . SVG Version: 6.00 Build 0)  -->
<svg version="1.1" id="Слой_1" xmlns="http://www.w3.org/2000/svg" xmlns:xlink="http://www.w3.org/1999/xlink" x="0px" y="0px"
	 viewBox="0 0 288 560" style="enable-background:new 0 0 288 560;" xml:space="preserve">
<g>
	<path d="M140,315.8c0-5.5,0.1-11,0-16.5c-0.2-5.9-0.8-11.6-3-17.4c-1.8-4.5-1.3-9.9-2.2-14.8c-1.3-7-3.1-13.8-4.6-20.8
		c-1.2-5.2-3.8-8.2-9.8-8.7c-9.9-0.9-19.2-4.5-27.4-10.2C80.6,218.8,71.7,207.3,65,194c-2-4.1-3.7-8.4-5.5-12.6
		c-4.4-9.7-5.5-19.8-3.9-30.2c1.3-8.1,3.1-16.1,4.8-24.2c0.2-1.1,0.6-2.2,1.1-3.3c2-5,3.4-6.1,8.2-4.4c8.4,2.9,16.8,6.1,24.9,9.6
		c4.6,2,8.8,4.8,13.2,7.3c19.6,11.1,29,28.9,31.5,50.3c1.1,9.9-0.4,20.1-1,30.1c-0.3,4.6-1.7,8.9-4.3,12.8c-3,4.4-3.3,9.3-1.9,14.5
		c2.3,8.6,4.9,17.2,6.3,26c1.9,12.2,3.3,24.5,3.8,36.8c0.5,12.3-0.5,24.7-0.9,37.1c-0.1,1.8-0.2,3.7-0.1,5.5c0,0.6,0.4,1.2,0.6,1.9
		c0.6-0.6,1.3-1.1,1.7-1.7c0.4-0.5,0.6-1.2,0.8-1.9c6.3-16,14.2-31.2,23.7-45.7c2.4-3.7,3.7-7.6,3.6-12.2c-0.3-14.4,0.1-29,3.4-43
		c3.8-16,10.8-30.4,25.6-39.9c12.7-8.1,26.3-13.8,41-16.9c2.9-0.6,5.9-0.5,8.9-0.7c1.8-0.1,3.1,0.4,3.3,2.6
		c1.3,10.9,2.7,21.8,4.1,32.6c1,7.7-2,14.5-5.6,20.9c-3.4,5.9-7.4,11.6-11.9,16.8c-14.3,16.3-32.2,25.9-53.9,28.6
		c-3.4,0.4-6.7,1.6-9.9,2.7c-1.2,0.4-2.2,1.6-3,2.7c-13.4,20.1-24.6,41.3-31.8,64.4c-2.4,7.8-3.3,16.1-5,24.1
		c-2.1,9.6-4.3,19.2-6.6,28.7c-0.2,0.6-1.1,1.1-1.6,1.6c-0.2-0.6-0.7-1.3-0.6-1.9c0.2-1.8,0.5-3.6,0.9-5.4c0.8-3.3,1.6-6.7,2.4-10
		c1.8-6.9,2.5-13.8,0.8-21c-1.6-6.4-2.2-13.1-3.5-19.6c-2.7-13.4-8.9-25.5-15.2-37.4c-6.4-12.1-13.7-23.8-20.6-35.6
		c-0.4-0.6-1.4-0.9-2.1-1.3c-0.2,0.8-0.7,1.8-0.5,2.5c1,3.5,2.5,6.8,0.4,10.6c-2.3,4.1-6.3,5.1-10.1,6.6c-3,1.2-6.1,2-9.2,2.8
		c-4,1-4.7,0.4-5.3-3.7c-0.6-4.5-1.3-9.1-2.1-13.6c-0.3-1.6-0.7-2.9-3.2-1.6c-1.7,0.9-4.6,1.1-6.4,0.4c-8.8-3.7-12.7-11.5-15.3-20
		c-0.3-0.9,1.2-3.1,2.3-3.5c5.4-1.8,10.9-3.8,16.7-2.5c5.4,1.2,10.1,3.2,11.3,9.5c0.1,0.7,0.9,1.3,1.4,2c0.3-0.7,0.8-1.4,0.9-2.1
		c0.3-6.2,2.6-11.5,6.8-16c1.9-2.1,3.9-2.4,6.1-1.2c4.6,2.5,9.2,5.1,12.4,9.6c3.3,4.7,3.3,6.8-0.4,10.9c-1.4,1.5-3.8,2.9-3.8,4.5
		c-0.1,2,1.6,4.2,2.7,6.1c5,8.2,10.2,16.3,15,24.6c9.6,16.5,17.2,33.9,22.1,52.3c0.5,1.7,0.3,3.6,0.4,5.4c0.1,1.8,0.1,3.7,0.4,5.4
		c0.1,0.7,1.1,1.2,1.7,1.8c0.3-0.6,0.7-1.2,0.8-1.8c0.6-4.8,1.4-9.5,1.8-14.3c1.2-13.9,2.2-27.8,3.3-41.7
		C140.7,315.9,140.3,315.8,140,315.8z M63.3,153.6c1-5.3,1.6-10.8,3.1-16c1.2-4,3-4.4,7.4-3.8c1.8,0.2,3.6,0.4,5.5,0.6
		c18.6,1.8,31.7,11.4,40.6,27.7c10.3,19,11.5,39.1,8.6,59.9c-0.3,2.4-0.4,5-0.2,7.4c0.1,1.2,1.3,2,2.4,0.6c0.8-1.1,1.6-2.3,2.1-3.5
		c4.1-9.6,5.8-19.8,5.4-30.1c-0.3-7.2-1.9-14.5-3.9-21.5c-4.2-14.8-12.4-26.9-25.9-35c-4.1-2.5-8.3-4.8-12.4-7.4
		c-8.5-5.2-17.9-7.9-27.3-10.8c-2.6-0.8-4.4,0-5.1,2.9c-1.5,5.8-3.5,11.4-4.5,17.2c-1.9,10.4-3.2,20.9,0,31.3
		c5.5,18,14.3,34.1,28.5,46.9c7.4,6.7,15.7,11.9,25.7,13.8c3.2,0.6,6.7,0,10.1-0.4c0.9-0.1,1.6-1.4,2.4-2.2
		c-0.7-0.7-1.3-1.8-2.2-2.1c-2.5-1.1-5.1-2-7.7-2.8c-15.1-4.5-26.7-13.5-35.1-26.9c-1.8-2.9-3.7-5.8-5.5-8.7
		C68.2,179.4,64.5,167.1,63.3,153.6z M173.7,276.5c0.2,0,0.3,0,0.5,0c0,2.5-0.1,5,0,7.6c0,0.5,0.6,1.1,0.9,1.6
		c0.4-0.4,1-0.9,1.1-1.3c0.8-5.9,1.7-11.7,2.2-17.6c0.9-10.5,3.1-20.6,7.9-30.2c3.3-6.4,7-12.2,12.2-17.3c7.7-7.6,17-12.4,27.1-15.6
		c5.8-1.9,12-2.7,18.1-3.3c3.6-0.4,4.4,0.7,4.5,4.4c0.1,5.9,0.2,11.9-0.3,17.8c-0.3,3.8-1.1,7.8-2.4,11.3
		c-7.2,19.3-21.4,32.7-38.4,43.3c-0.7,0.5-1.7,0.5-2.6,0.7c-7,1.9-14.1,3.7-21.1,5.7c-0.8,0.2-1.8,0.7-2.3,1.4
		c-0.6,0.8-1.1,1.9-1.1,2.9c0,0.5,1.3,1.1,2.1,1.2c0.9,0.2,1.8-0.1,2.7-0.2c19.9-2.3,36.7-10.8,50.4-25.3c4.4-4.6,8.5-9.6,12-15
		c4.3-6.5,8.4-13.6,8.1-21.5c-0.4-10-2.1-20-3.7-29.9c-0.7-4.6-3.3-6.1-7.8-5.8c-1.4,0.1-2.7,0.4-4,0.8c-7.8,2.6-15.8,4.8-23.3,8
		c-10.2,4.4-18.9,11-26.5,19.2c-7.4,8.1-10.3,18.3-12.9,28.3C174.8,257.1,174.8,266.9,173.7,276.5z M79.4,188
		c-0.4,0.9-1.5,2.3-1.2,2.8c2.4,3.5,4.4,8.5,7.9,10c9.1,4,18.9,6.6,28.4,9.7c0.2,0.1,0.5,0,0.7,0c2.2,0,3-1.5,2.2-3.7
		c-1.1-2.8-3.1-4.4-5.7-5.5c-9.2-4-18.4-8.1-27.6-12C82.8,188.8,81.4,188.6,79.4,188z M224.4,258.3c1.3-0.6,3-0.8,4.1-1.8
		c2-1.9,3.8-4,5.2-6.3c1.8-2.9,1.4-3.9-1.8-5.1c-4.7-1.8-9.5-3.4-14.3-4.9c-3.8-1.2-9.5,2.7-11.1,8c-1.4,4.7,3.2,3.9,5.4,5.3
		c1.6,1,3.2,1.8,4.9,2.4C219.2,256.7,221.7,257.4,224.4,258.3z M234.2,242.4c2.1-1.1,5-1.5,5.7-3.1c2-4,3.5-8.4,4.5-12.8
		c0.7-2.7-0.8-3.8-3.6-3.1c-4.4,1.1-8.9,2-13.1,3.8c-3,1.3-5.8,3.5-8.3,5.8c-2.1,1.9-1.8,3.8,0.8,4.8
		C224.8,239.7,229.4,240.9,234.2,242.4z M66.8,291.9c0.5,1.8,1.3,4.9,2.5,7.8c0.4,1,2.3,2.2,3.1,2c4.5-1.4,9.2-2.8,13.2-5.1
		c3.3-1.9,3.1-7.6,0-8.4c-3.8-1-6.3-3.3-9-5.8c-0.8-0.7-2.5-1.2-3.5-0.8C69.7,282.5,66.8,287,66.8,291.9z M202.7,235.8
		c0.1,0,0.3,0,0.4,0c0,2.5-0.1,5,0.1,7.5c0,0.8,0.7,1.5,1.1,2.2c0.8-0.4,1.6-0.8,2.2-1.3c0.5-0.4,0.9-1,1.3-1.6
		c6.7-8.6,6.2-19.3,7.9-29.3c0.4-2.2-1.6-2.4-3.4-1.6c-4.4,1.8-7,5.2-7.9,9.7C203.5,226.2,203.2,231,202.7,235.8z M112.1,197.2
		c-0.2-0.9-0.2-1.4-0.4-1.8c-1.4-4-3.5-7.2-7.9-8.7c-8.7-2.9-17.2-6.2-25.8-9.1c-1.7-0.6-4.1-0.8-5.6-0.1c-1.5,0.7,0.3,3.8,3.5,5.5
		c1,0.5,2.1,0.8,3.2,1.3c6.5,2.9,12.9,5.8,19.4,8.6c3.8,1.6,7.6,3.2,11.4,4.6C110.4,197.8,111.3,197.3,112.1,197.2z M116.8,178.2
		c0-4.6,0.4-7.9-0.1-11c-0.6-3.5-1.6-7-3.1-10.3c-0.7-1.6-2.7-2.7-4.1-4.1c-0.5,1.8-1.6,3.7-1.5,5.5c0.5,8.8,1.2,17.7,1.9,26.5
		c0.2,2,0.9,4,1.7,5.8c0.4,0.9,1.5,1.5,2.3,2.2c0.6-0.8,1.7-1.6,1.8-2.5C116.3,185.8,116.6,181.3,116.8,178.2z M68.8,163.2
		c-0.3,0.7-0.9,1.4-0.9,2.2c0,3,1.2,5.4,4,6.6c8.6,3.6,17.2,7.1,26,10.4c1.4,0.5,3.8,2.1,4.6-0.4c0.3-1.1-1.5-2.9-2.4-4.3
		c-0.2-0.3-0.8-0.4-1.2-0.7c-8.5-6-18.5-8.6-27.7-13.1C70.6,163.6,69.9,163.5,68.8,163.2z M90.9,207.6c0.7,0.9,1.1,1.8,1.7,2.3
		c4.7,3.6,9.3,7.4,14.4,10.4c2.8,1.7,6.3,2.5,9.6,3.2c1.9,0.4,4-0.1,6-0.2c-0.7-2.1-1.2-4.2-2.1-6.2c-0.4-1-1.4-2.1-2.3-2.4
		c-8.4-2.8-16.9-5.4-25.4-8.1C92.4,206.5,91.8,207.2,90.9,207.6z M107,171.5c-0.1,0-0.2,0-0.2,0c-0.3-6.6-0.8-13.2-0.9-19.8
		c-0.1-3.6-1.9-6-4.7-7.8c-3-1.9-4.2-1.5-4.2,2c0,2.7,0.6,5.4,0.6,8.2c0.2,5.7,4.2,10.4,3.3,16.5c-0.4,2.3,1.7,5,2.8,7.5
		c0.2,0.5,1.1,0.9,1.6,0.9c0.5-0.1,1.2-0.8,1.3-1.3C106.9,175.6,106.9,173.5,107,171.5z M82.6,255.5c-0.4,0.1-0.9,0.1-1.3,0.3
		c-3.5,1.5-7.3,11.1-5.4,14.4c0.5,0.9,2.4,2.1,3.1,1.8c4.7-2,9.5-3,14.6-3.4c0.7-0.1,1.8-1.6,1.7-2.3
		C94.9,262.9,86,255.6,82.6,255.5z M66.5,155.3c-0.2,1.5,0.9,3.3,3.6,4.5c7.2,3.3,14.4,6.9,21.6,10.3c0.5,0.3,1.3,0.1,1.9,0.1
		c0-0.8,0.2-1.8-0.2-2.4c-5.5-9.3-14.4-13.6-24.2-16.7C66.9,150.4,66.8,152.3,66.5,155.3z M55.3,264.3c-1.6,0.5-4.3,1.1-6.7,2.4
		c-1.1,0.6-2.2,2.7-2,3.9c0.9,5.1,3.2,9.5,7.9,12.3c2.5,1.5,3.7,0.9,4.5-1.8c0.9-3.1,1.5-6.2,2.5-9.2
		C63.2,267.2,61.4,264.4,55.3,264.3z M95.9,163.8c-0.6-7.3-1.1-13.4-1.6-19.5c-0.3-3.7-3.1-4.8-6-5.7c-3.3-1-5,0.2-4.7,3.5
		c0.9,8.2,4.5,15.2,9.4,21.7c0.5,0.6,1.5,0.8,2.3,1.3C95.7,164.2,96.1,163.5,95.9,163.8z M193.2,240.8c-0.1,0-0.1,0-0.2,0
		c0.3,4.1,0.4,8.2,0.8,12.2c0.1,1,1,1.9,1.6,2.8c0.9-0.9,2-1.7,2.7-2.7c0.6-0.9,0.8-2.1,0.9-3.3c0.6-7,1.3-14,1.7-21
		c0.1-2,1.4-5.2-1.4-5.8c-1.2-0.3-3.4,2.6-4.5,4.4c-1,1.6-1.4,3.8-1.6,5.8C193,235.8,193.2,238.3,193.2,240.8z M222.1,261.8
		c-0.6-0.5-1.1-1.2-1.9-1.6c-3.9-1.9-7.8-3.7-11.8-5.5c-1-0.5-2.1-1-3.2-1.2c-2.6-0.6-4.8,0.8-5.8,3.5c-0.9,2.3,0.6,3.5,2.2,4.4
		c3.4,1.8,6.9,3.5,10.4,5c3.3,1.4,7.5-0.1,9.5-3.1C221.9,263,221.9,262.6,222.1,261.8z M191,252.5c0.1,0,0.2,0,0.3,0
		c-0.2-4.3-0.3-8.6-0.7-12.9c-0.1-0.6-1.1-1.2-1.6-1.8c-0.4,0.5-1,0.9-1.3,1.4c-5,8.3-3.7,17-1,25.6c0.2,0.7,1.1,1.7,1.8,1.7
		c0.6,0.1,1.7-0.8,2-1.4c0.5-1.4,0.9-2.9,0.9-4.4C191.4,257.9,191.2,255.2,191,252.5z M117.7,190.5c0,3.2,0,5.5,0,7.8
		c0,1.1-0.1,2.3,0.3,3.4c0.2,0.7,1,1.3,1.5,1.9c0.5-0.7,1.2-1.3,1.4-2c0.5-2.2,0.8-4.5,1.2-6.7c0.4-2.5,0.2-5.2,1.3-7.3
		c2.9-5.7,0.8-10.7-1.6-15.7c-0.3-0.7-1.4-1-2.1-1.5c-0.3,0.6-0.7,1.2-0.7,1.9C118.5,178.6,118.1,185,117.7,190.5z M216.3,225.3
		c0.1,0,0.2,0,0.3,0.1c0,0.7-0.1,1.4,0,2c0.2,1,0.7,2,1,2.9c0.7-0.5,1.6-0.9,2.1-1.5c4.5-5.2,6-11.6,7.2-18.1
		c0.2-1.2-0.2-3.4-0.8-3.6c-1.3-0.4-3.4-0.4-4.4,0.4c-1.4,1.2-2.6,3.2-3.1,5C217.6,216.7,217,221,216.3,225.3z M201.2,274.1
		c1.7-0.1,2.6-0.1,3.5-0.3c0.9-0.1,1.8-0.3,2.7-0.6c2.8-0.9,3.3-2.7,1-4.3c-2.4-1.7-5-3.2-7.7-4.4c-5-2.3-7.2-1.5-8.8,3.6
		c-0.3,0.9,0.3,3,1,3.3C195.7,272.6,198.8,273.3,201.2,274.1z M246,212.1c0-0.5,0.1-1,0-1.4c-0.4-1-0.8-2-1.3-2.9
		c-1,0.4-2.1,0.7-2.9,1.4c-3.7,3.4-7.4,6.8-10.9,10.3c-0.7,0.7-0.9,2-1.3,3c1.1,0.1,2.2,0.5,3.1,0.3c2.4-0.5,4.8-1.3,7.2-2.1
		C244.9,219.1,246,217.4,246,212.1z M127.3,205.4c0.2,0,0.4,0,0.7,0c-0.4-4.5-0.7-9-1.1-13.5c-0.1-0.8-0.9-1.5-1.3-2.2
		c-0.4,0.7-1.2,1.4-1.3,2.1c-0.8,6.7-1.7,13.5-2.2,20.3c-0.1,1.7,0.7,3.6,1.4,5.2c0.4,0.9,1.4,1.6,2.1,2.4c0.6-0.9,1.7-1.8,1.7-2.7
		C127.5,213.1,127.3,209.2,127.3,205.4z M228.9,213.7c0.3,0.7,0.5,1.6,0.9,2.3c0.1,0.2,1.3-0.2,1.8-0.6c3.4-3,6.7-6,10-9.1
		c0.6-0.5,1.1-2,0.8-2.3c-0.6-0.7-1.7-1.3-2.7-1.4c-5.5-0.3-8.2,1.7-9.6,7C229.8,210.9,229.4,212.2,228.9,213.7z M69.1,140.1
		c-0.4,0.5-1.3,1.1-1.4,1.8c-0.2,1.4-0.5,3.9,0.3,4.3c2.8,1.7,6,2.7,9,4c1.1-3.6-2.5-4.8-3.9-7.1c-0.6-0.9-1.5-1.7-2.4-2.4
		C70.5,140.4,69.9,140.3,69.1,140.1z M81.2,145.1c-0.2-3.3-0.3-6.3-3.2-7.6c-1.3-0.6-3-0.3-4.6-0.4c0.3,1.4,0.2,3,0.8,4.1
		c1,1.7,2.6,3.2,4,4.7c0.4,0.4,1.4,1,1.7,0.8C80.6,146.3,81,145.4,81.2,145.1z M184.6,271.1c-1.2-3,0.7-6.5-2.8-8.2
		c-0.4,2.4-0.9,4.8-1.2,7.2c-0.2,2-0.3,4-0.2,6.1c0,0.5,0.7,1.3,1.2,1.4c0.5,0.1,1.4-0.5,1.5-0.9
		C183.7,274.6,184.2,272.7,184.6,271.1z M185.8,280.8c2.9-0.8,5.4-1.3,7.7-2.1c1.7-0.6,1.8-2,0.5-3.1c-3.5-2.9-8.5-1-9.2,3.6
		C184.7,279.7,185.5,280.4,185.8,280.8z M67.9,277c-0.9,1.1-1.5,2-2.1,2.8c0,0,1.1,1,1.2,0.9c0.8-0.7,1.5-1.4,2.2-2.3
		C69.3,278.4,68.6,277.7,67.9,277z"/>
</g>
</svg>
