<?xml version="1.0" encoding="utf-8"?>
<!-- Generator: Adobe Illustrator 21.0.2, SVG Export Plug-In . SVG Version: 6.00 Build 0)  -->
<svg version="1.1" id="Слой_1" xmlns="http://www.w3.org/2000/svg" xmlns:xlink="http://www.w3.org/1999/xlink" x="0px" y="0px"
	 viewBox="0 0 288 560" style="enable-background:new 0 0 288 560;" xml:space="preserve">
<g>
	<path d="M256.5,389.4c-3.3-1.8-5.3-4.7-6.5-8.1c-9-25.2-23.2-47.6-36.6-70.5c-2.9-4.9-5.8-9.9-8.3-15c-1.2-2.5-2.9-3.2-5.4-2.9
		c-5,0.5-10,1-15,1.3c-32,1.9-62.9-3.4-92.8-14.6c-14.9-5.5-28-14.2-39.3-25.2c-11.5-11.3-16.8-25.5-18.4-41.3
		c-2-19.9,1.6-38.4,14.2-54.4c10.2-12.8,22.5-22.7,39-26.1c11.4-2.4,22.8-1.1,34,1.7c4.5,1.1,8.9,2.4,13.4,3.5
		c4.9,1.2,5.9,0.9,8.4-3.6c3.6-6.4,6.7-13,10.6-19.1c9.2-14.4,22.2-23.9,38.9-28c11.7-2.8,21.9,0.6,31.4,7.5
		c11.9,8.7,17.4,21.2,21.4,34.8c5.4,18.6,5.2,37.4,3.8,56.4c-1.8,26-6.5,51.4-15.2,76c-2.1,6-5.1,11.7-7.9,17.5
		c-1.1,2.1-1.2,3.8-0.1,6c13.9,28,27.6,56,41.4,84.1c1,2,1.9,4.1,2.8,6.2c1.6,3.9,0.7,6.9-2.9,9.1c-2.6,1.6-5.2,3.1-7.8,4.7
		C258.4,389.4,257.5,389.4,256.5,389.4z M142.3,266.5c-1.8,6.5-3.4,12.6-5.3,19.6c7.4,0,14.1,0.5,20.8-0.1c6.7-0.6,13,2.4,19.7,1.5
		c6.5-0.9,13.2-0.9,19.7-1.8c13.7-2,23.2-9.3,27.4-22.8c1.7-5.5,3.7-10.8,5.2-16.3c6-21,9.5-42.5,10.8-64.3
		c0.9-15.7,1.2-31.3-2.6-46.8c-3.1-12.9-7.5-25.1-18.2-34c-7.6-6.3-16.1-9.3-25.8-7.2c-16.4,3.7-28.3,13.3-36.4,27.9
		c-3.5,6.4-7,12.8-10.4,19.3c-1.5,2.8-3.7,3.8-6.9,3.1c-7.9-1.7-15.9-3-23.8-4.8c-13.3-3.1-26.1-2.3-38.6,3.6
		c-19.9,9.5-30.6,26-35.9,46.6c-0.7,2.5-0.3,5.3-0.4,7.9c0.3,0.1,0.7,0.1,1,0.2c2.8-4.7,5.6-9.3,8.4-14c0.2,0.1,0.5,0.3,0.7,0.4
		c-2.7,5.3-5.4,10.7-8.2,16c-3,5.6-3.1,11.2-0.7,17.3c1.1-1.5,2-2.8,3.3-4.6c-3.3,12.6-2.7,18.1,2.2,21.6c1.8-4.5,3.6-9,5.5-13.4
		c2.9-6.8,4.6-13.7,5.3-21.1c1.8-18.5,10.8-32.5,27.2-41.4c11.1-6,23.1-6.6,35.4-5c8.2,1.1,16.3,2.4,23.9,6.2
		c6.3,3.1,9.5,1.3,12.8-4.9c5.4-10.1,10.5-20.4,16.9-29.8c11.8-17.3,39.9-14.1,48.4,5c4.1,9.1,4.8,18.9,5.1,28.6
		c0.5,16.3-2.2,32.2-5.8,48c-3.9,17.4-8.9,34.5-16.3,50.8c-3,6.7-7.9,11.1-15.3,12.1c-4.7,0.6-9.4,1.3-14.1,1.2
		c-6.7-0.1-13.4-0.9-20.1-1.5c-1.8-0.2-2.7,0.3-3.3,2c-0.9,2.7-2.1,5.3-3.2,8c-0.2,0.6-0.7,1-1.1,1.5c-0.2-0.1-0.5-0.3-0.7-0.4
		c1.2-4,2.4-8,3.7-12.3C149.4,267.8,146,267.2,142.3,266.5z M158.6,259c-1.4,4.6,1.2,5.1,3.7,5.3c7.1,0.5,14.2,0.9,21.3,1.1
		c8.7,0.3,14.7-3.7,18-11.7c0.5-1.3,1.1-2.5,1.7-3.8c9.6-23.2,15.8-47.3,18.6-72.2c1.5-13,1.6-26-1.6-38.8c-1.8-7-5.4-13-12.2-16.2
		c-10.2-4.9-20.8-2.7-28,6.7c-4.2,5.6-7.2,12.1-10.7,18.3c-2.8,5-5.2,10.2-8.3,15c-2.7,4.1-7,5.6-11.7,4.3c-4.6-1.3-9.1-3-13.6-4.7
		c-17.4-6.6-34.4-5.1-50.5,3.7c-15.2,8.3-24.3,28.9-21,46c1.8,9.3,4.9,18.1,13.6,23.6c0.6,0.4,0.9,1,1.4,1.5c3,2.6,6,5.1,9.5,8.1
		c1.4-1.8,2.3-2.9,3.6-4.6c0,1.8-0.1,2.9,0,3.9c0.1,0.7,0.6,1.7,1.1,2c3.2,1.5,6.5,2.8,9.8,4.2c1.2-2.4,2.3-4.5,3.4-6.6
		c0.2,0.1,0.4,0.2,0.6,0.2c-0.4,2.4-0.7,4.8-1.2,7.9c11.5,2.8,22.6,5.5,33.8,8.1c0.7,0.2,1.9-0.7,2.3-1.4c1-1.7,1.7-3.5,2.4-5.3
		c0.2,0.1,0.4,0.2,0.6,0.2c-0.3,2.5-0.6,5-0.8,7.4C154.3,263.3,154.5,263.3,158.6,259z M208.1,291.6c18.1,30.3,37.6,59.4,49.4,92.9
		c3.2-2,5.9-3.6,8.7-5.3c-13.6-32.3-30.9-62.3-47.1-93.2C215.4,287.8,211.9,289.6,208.1,291.6z M104.8,256.4
		c-1.5,4.9-2.9,9.4-4.3,13.9c-0.3-0.1-0.6-0.2-0.9-0.2c0.1-0.7,0-1.5,0.2-2.2c0.6-3.6,1.3-7.2,1.8-10.8c0.1-0.8-0.3-2.1-0.8-2.3
		c-3.3-1.5-6.6-2.9-10.2-4.4c-1.8,6.6-3.5,12.8-5.3,19.2c11.3,5.1,22.8,8.8,34.9,11.7c1.8-6.2,3.4-12.2,5.1-18.3
		C118.4,260.8,111.7,258.7,104.8,256.4z M69.5,259.6c1.9-5.2,3.6-9.8,5.3-14.5c0.9-2.4,0.6-4.3-1.5-6.1c-2.4-2-4.7-4.2-7-6.4
		c-0.7-0.6-1.2-1.5-1.5-2.4c-1.8-5.1-3.5-10.2-5.3-15.2c-3.4,6.9-6.1,13.5-8.6,20.3c-1.3,3.5-0.5,6.9,2.1,9.6
		c3.4,3.6,6.9,7.2,10.6,10.6C65.2,257.1,67.3,258.1,69.5,259.6z M77.3,242.9c-1.9,5.9-3.7,11.4-5.3,17c-0.2,0.7,0.3,2.2,0.9,2.5
		c3.3,2.1,6.8,3.9,10.5,6c1.7-6,3.3-11.7,4.8-17.5c0.2-0.6-0.4-1.7-1-2.1C84.1,246.9,80.8,245,77.3,242.9z M127.2,263.2
		c-1.7,6.3-3.4,12.4-5.1,18.7c4.5,0.8,8.5,1.6,12.7,2.4c1.6-6.2,3.1-12.1,4.7-18.1C135.4,265.2,131.6,264.3,127.2,263.2z"/>
	<path d="M168.3,248.5c-10.2-1.4-20.5-2.6-30.7-4.3c-12.8-2.2-25.3-5.2-36.8-11.5c-6.9-3.7-13.8-7.8-17.2-15.3
		c-4.9-10.8-6.6-22,1.1-32.2c5.9-7.8,19.2-15.9,33.8-11.2c11.4,3.6,23.1,6.4,34.7,9.5c4.9,1.3,8.8-0.1,12.3-4.1
		c6.2-7,10.6-15.2,15-23.3c2.3-4.3,5.2-8.2,9.3-10.9c11-7.2,20.7-2.7,22.8,10.3c1.2,7.6,0.2,15-0.6,22.4
		c-1.7,15.7-4.2,31.2-8.2,46.5c-3.4,13.2-12.4,20.1-25.5,22.2c-3.3,0.5-6.6,0.8-10,1.2C168.3,248,168.3,248.3,168.3,248.5z
		 M207.6,163.5c-0.2-2.8-0.3-6.3-0.9-9.8c-1.1-5.9-6-8.1-11.4-5.5c-3.8,1.8-6.5,4.7-8.7,8.2c-5.2,8.3-10.4,16.7-15.9,24.9
		c-3.9,5.9-9.7,9-16.8,7.4c-10.9-2.4-21.8-5.4-32.6-8.2c-3-0.8-6-2.3-9.1-2.6c-9.9-1-18.3,2.4-23.9,10.6c-5.7,8.4-4.8,17.6-0.4,26.4
		c3.7,7.4,10.5,11.2,17.5,14.3c21.2,9.5,43.6,13,66.6,12.3c15.3-0.4,23-6.8,26.8-20.8C203.7,202.4,206.5,183.5,207.6,163.5z"/>
	<path d="M59.4,246.5c1.3-4,2.6-8,3.8-12c0.3,0.1,0.6,0.2,0.8,0.3c-1.2,4-2.5,8-3.7,12C60,246.6,59.7,246.6,59.4,246.5z"/>
	<path d="M156.8,227.4c-12.7,0.1-24.9-2.9-36.7-7c-6.3-2.2-10.5-7.2-13.4-13.1c-1.5-3-0.7-5.3,2.2-7.1c9.1-5.6,18.8-7.4,29.1-3.8
		c7.7,2.7,15.4,4.9,23.6,4.5c7.5-0.4,12.6-3.6,15.5-10.7c1.3-3.4,3.1-6.6,4.9-9.8c0.6-1.2,1.6-2.2,2.7-3.1c4-3.6,8.2-2.8,10.7,1.9
		c2.4,4.6,3.3,9.7,3.2,14.9c-0.5,16.8-12.8,30.3-29.7,32.3C164.9,227,160.9,227.1,156.8,227.4z M189.3,177.7c-2,2.4-4,4.3-5.3,6.6
		c-2.1,3.7-3.7,7.6-5.5,11.4c-1.8,3.8-4.6,6.5-8.7,8c-7.8,2.8-15.6,3-23.4-0.1c-3.3-1.3-6.6-2.5-10.1-3.4
		c-7.6-1.8-15.2-1.8-22.5,1.8c-3.3,1.7-3.9,3.2-2.6,6.4c1.7,4.1,4.6,7.1,8.9,8.5c16.5,5.2,33.3,7.7,50.7,4.9
		C191,218.6,201.2,195.5,189.3,177.7z"/>
</g>
</svg>
