<?xml version="1.0" encoding="utf-8"?>
<!-- Generator: Adobe Illustrator 21.0.2, SVG Export Plug-In . SVG Version: 6.00 Build 0)  -->
<svg version="1.1" id="Слой_1" xmlns="http://www.w3.org/2000/svg" xmlns:xlink="http://www.w3.org/1999/xlink" x="0px" y="0px"
	 viewBox="0 0 288 560" style="enable-background:new 0 0 288 560;" xml:space="preserve">
<g>
	<path d="M76.9,203.2c-1.7-0.5-2.7-1.4-3-3.1c-0.3-2.3,1.5-3.1,3-4.1c0.2-0.8,0.5-1.6,0.6-2.4c1-5.2,3-10.1,4.9-15
		c2.3-5.8,4.8-11.5,6.9-17.4c1.5-4.3,2.6-8.8,3.8-13.2c1.5-5.3,2.8-10.7,4.3-16.1c0.5-1.8,1.3-3.5,1.9-5.3c0.5-1.5,1.5-2.3,3-2.5
		c1.4-0.2,2.7-0.4,4.1-0.4c4.3,0,8.6,0,13,0.1c11.5,0.1,23,0.3,34.5,0.4c6.9,0.1,13.8,0.2,20.7,0.2c7,0,13.9-0.3,20.9-0.4
		c8.2-0.1,16.4-0.3,24.6-0.2c4,0,7.9,0.4,11.9,0.7c2,0.1,3.1,1.3,3.3,3.3c0.1,0.6,0,1.1,0,1.7c0,10.1,0,20.2,0.1,30.3
		c0.1,9.8,0.3,19.6,0.4,29.4c0.1,6.1,0.3,12.1,0.4,18.2c0.1,4.5,0.3,9,0.4,13.6c0.1,3.9,0.2,7.8,0.4,11.7c0.3,5.8,0.5,11.7,0.9,17.5
		c0.3,5.1,0.8,10.1,1.2,15.2c0.4,5.1,0.8,10.1,1.3,15.2c0.9,9.4,0.9,18.9,0.7,28.4c-0.1,3.9-0.6,7.7-1.1,11.6
		c-0.5,3.5-1.2,7-1.8,10.4c0,0.2-0.1,0.4-0.1,0.6c-0.8,3.3-2.2,3.7-4.6,3.7c-8,0.1-16,0.3-24,0.4c-4,0.1-7.9,0.3-11.9,0.4
		c-3.4,0.1-6.8,0.2-10.2,0.4c-9.2,0.5-18.5,0.8-27.7,0.9c-7.9,0-15.9,0.3-23.8,0.2c-6-0.1-11.9-0.5-17.9-0.8
		c-4.1-0.2-8.2-0.4-12.3-0.8c-4.9-0.5-9.7-0.3-14.6-0.4c-2.9-0.1-5.7-0.4-8.4-1.2c-2.4-0.7-3.9-2.3-4.9-4.5c-0.9-2.2-1.5-4.6-1.7-7
		c-0.9-9.2-0.6-18.4-0.3-27.5c0.5-11.3,0.3-22.7,0.4-34c0.1-13.2,0.3-26.3,0.4-39.5c0.1-5.7,0.2-11.4,0.3-17.1
		C76.9,204.1,76.9,203.7,76.9,203.2z M83.7,199.3c0,1.8,0,3.4,0,5c-0.1,15-0.2,29.9-0.4,44.9c-0.1,7.7,0.2,15.5-0.5,23.2
		c-0.3,3-0.3,6.1-0.5,9.2c-0.1,2.3-0.3,4.6-0.4,6.9c-0.2,4.6-0.6,9.2-0.7,13.7c-0.1,3.5,0.2,7,0.2,10.4c0.1,3.6,0.5,7.1,1.4,10.5
		c0.5,2,1.2,4,3.3,5.4c0.8,0.1,1.7,0.3,2.7,0.3c8.2,0,16.4,0.2,24.6,0.8c4.3,0.3,8.6,0.4,12.9,0.6c0.3,0,0.6,0,0.8,0
		c4.7,0.2,9.4,0.6,14.2,0.7c9.1,0.2,18.2,0.3,27.3-0.3c3.6-0.2,7.2-0.3,10.8-0.4c3.8-0.1,7.5-0.3,11.3-0.4c3.8-0.1,7.5-0.3,11.3-0.4
		c7.4-0.2,14.7-0.4,22.1-0.5c2,0,4,0,6.1-0.1c0.5,0,1.1-0.1,1.6-0.1c0.2-0.4,0.3-0.7,0.4-1.1c0.5-2.9,1-5.7,1.4-8.6
		c0.3-2.1,0.6-4.3,0.7-6.4c0.2-2.9,0.3-5.8,0.4-8.7c0-1.4-0.1-2.8-0.2-4.2c-0.2-6.1-0.4-12.2-0.6-18.4c-0.1-1.8-0.3-3.6-0.4-5.4
		c-0.4-4.4-0.8-8.7-1.2-13.1c-0.2-2.1-0.3-4.3-0.5-6.4c-0.4-5.1-0.8-10.1-1.1-15.2c-0.3-6.2-0.3-12.4-0.4-18.6
		c-0.2-7.8-0.3-15.6-0.4-23.4c-0.1-5.4-0.3-10.7-0.4-16.1c-0.1-5.4-0.3-10.7-0.4-16.1c-0.2-11.1-0.3-22.1-0.5-33.2
		c0-0.6,0-1.1,0-1.7c0-0.5-0.1-0.9-0.2-1.3c-3.6-0.2-7.1-0.4-10.6-0.4c-3.9,0-7.8,0.1-11.7,0.2c-6.5,0.1-12.9,0.3-19.4,0.4
		c-11.3,0.1-22.5,0.3-33.8-0.2c-7-0.3-13.9-0.3-20.9-0.4c-5.8-0.1-11.6-0.1-17.3-0.1c-0.6,0-1.2,0-1.8,0c0.5,0.6,1,0.9,1.5,1.2
		c1.7,0.9,3.4,1.7,5,2.7c5.8,3.7,11.6,7.4,17.4,11.1c0.5,0.3,0.9,0.6,1.3,1c1.3,1.3,1.4,2.9,0.3,4.3c-0.2,0.3-0.5,0.6-0.8,0.9
		c-9.4,9.5-18.5,19.1-28.5,27.9c-6.8,6-13.8,11.7-21.2,16.9C86.4,197.3,85,198.4,83.7,199.3z M85.2,190
		c17.2-11.7,31.7-26.2,46.2-40.9c-8.9-6.1-17.8-11.9-27-17.3c-0.2,0.5-0.4,0.8-0.5,1.1c-0.8,2.7-1.6,5.3-2.3,8
		c-1.2,4.9-2.3,9.8-3.6,14.7c-1.4,5.4-3.5,10.5-5.7,15.6c-2.4,5.8-5,11.6-6.9,17.6C85.4,189.2,85.3,189.6,85.2,190z"/>
	<path d="M205.5,296.5c2.2,1.4,4.2,2.6,6.1,3.8c3.2,1.9,6.3,4.1,9.1,6.7c0.7,0.6,1.2,1.5,1.7,2.1c-0.7,2.8-1.6,3.6-4.1,3.5
		c-1.5,0-2.9-0.3-4.4-0.3c-0.8,0-1.5,0-2.3,0c-1,1.9-0.8,3.9-1,5.9c-1.4,1.9-2.7,2.4-4.2,1.6c-0.5-0.3-1-0.7-1.4-1.3
		c-3.2-5.3-6.7-10.4-9.3-16c-0.5-1.1-0.8-2.2-1.2-3.2c-2.2-0.5-4.2-1-6.3-1.5c0,2,0,3.9,0,5.8c0.1,3.8,0.2,7.5,0.3,11.3
		c0,0.3,0,0.7,0,1c0,0.4-0.1,0.8-0.2,1.2c-0.7,2.3-3.2,3-4.9,1.3c-0.4-0.4-0.8-1-1.1-1.5c-0.6-1-1.4-1.7-2.4-2.2c-0.9,0-1.5,0.4-2,1
		c-0.1,0.1-0.1,0.2-0.2,0.4c-1.4,2.4-4.2,2.6-5.8-0.2c0.1-0.6,0-1.4,0.2-2.2c1.3-5.5,2.6-10.9,4-16.4c0.4-1.7,1.1-3.4,1.7-5.1
		c0.2-0.5,0.4-1,0.6-1.6c-0.4-0.5-0.7-1.1-1.1-1.5c-3.2-3.8-5.4-8.1-6.7-12.8c-1.9-7.3-0.9-14,4-20c4.4-5.4,10.1-8.7,16.9-9.8
		c6.3-1,12.3,0,17.4,4.4c2.5,2.2,4.5,4.8,6.1,7.6c1.7,3,3.1,6.2,3.8,9.7c1.3,6.6,0.3,12.8-3.4,18.5c-2,3.1-4.6,5.6-7.3,8
		C207.1,295.1,206.4,295.7,205.5,296.5z M212.5,274c-0.2-1.3-0.3-2.6-0.5-3.9c-0.6-3.6-1.7-7-3.7-10.1c-2.1-3.4-5.1-5.5-9-6.6
		c-2.6-0.7-5.2-0.7-7.8-0.3c-4.9,0.9-9.1,3.1-12.1,7.1c-2.7,3.6-3.4,7.6-2.6,12c1.3,8,5.5,14,12.3,18.2c5,3.1,10.4,1.6,14.6-1.4
		c1.7-1.2,3.1-2.8,4.5-4.4C210.7,281.7,212.4,278.2,212.5,274z"/>
	<path d="M103.4,216.8c-0.2-0.6-0.3-1.2-0.5-1.8c0.4-0.6,0.7-1.2,1.1-1.8c2.3,0,4.4,0,6.6,0c1.8,0,3.6,0.2,5.4,0.3
		c1.2,0,2.4,0,3.6,0c4.5-0.1,9-0.2,13.6-0.5c4-0.2,8-0.5,12.1-0.8c4-0.3,8-0.6,12.1-0.8c3.3-0.2,6.5-0.4,9.8-0.4
		c9.9-0.1,19.9-0.2,29.8,0.2c4,0.1,8,0.6,11.9,2c1.6,0.6,3.2,1.3,4.4,2.6c0.4,0.4,0.7,0.9,0.9,1.4c1.1,2.4-0.4,4.6-3,4.3
		c-1-0.1-1.9-0.4-2.9-0.6c-3.4-0.5-6.7-1.1-10.1-1.5c-4.3-0.5-8.7-0.8-13.1-1.2c-2.4-0.2-4.9-0.3-7.3-0.4c-4.2-0.2-8.3-0.5-12.5-0.4
		c-4.3,0-8.6,0.4-12.9,0.7c-2.2,0.1-4.4,0.3-6.7,0.5c-4.6,0.4-9.1,0.9-13.7,1.1c-3.8,0.2-7.5,0.2-11.3,0.1c-5.2,0-10.4-0.9-15.4-2.1
		c-0.3-0.1-0.7-0.2-1-0.3C104,217.2,103.8,217.1,103.4,216.8z"/>
	<path d="M102.9,236.1c0-0.9,0-1.5,0-2.2c0.7-1,1.6-1.1,2.6-1.2c4.7-0.3,9.4-0.6,14.1-0.9c4.7-0.3,9.4-0.6,14.1-0.8
		c6.5-0.3,12.9-0.6,19.4-0.9c3.8-0.2,7.6-0.3,11.5-0.4c3.7-0.1,7.4-0.3,11-0.4c4.9-0.2,9.7-0.2,14.6-0.4c4.8-0.2,9.6,0.1,14.4,0.2
		c2.2,0.1,4.4,0.4,6.6,0.8c1.6,0.3,2.9,1.1,3.8,2.4c0.7,0.9,1.1,1.9,0.5,3.1c-0.6,1.2-1.7,1.6-3,1.5c-1.2-0.1-2.5-0.3-3.7-0.5
		c-2-0.2-4-0.6-6-0.6c-7.7-0.1-15.3,0-23,0.1c-3.8,0-7.5,0.3-11.3,0.4c-4,0.1-8.1,0.3-12.1,0.4c-3.9,0.1-7.8,0.2-11.7,0.4
		c-10.5,0.6-21,0.3-31.5,0.3c-2.8,0-5.6-0.2-8.3-0.4C104.2,236.8,103.6,236.4,102.9,236.1z"/>
	<path d="M136.3,194.5c0.2-1,0.9-1.4,1.6-1.7c3.8-1.6,7.8-2.5,11.8-3.1c7.9-1.2,15.8-0.8,23.7-0.9c5.6-0.1,11.3-0.3,16.9-0.3
		c2.2,0,4.3-0.1,6.5,0.1c3,0.2,6,0.4,8.8,1.5c0.1,0.1,0.3,0.1,0.4,0.1c2.4,1,4.2,2.4,4.6,5.2c-0.6,1.9-0.6,1.9-3.1,2.7
		c-0.4-0.1-1-0.2-1.5-0.5c-2.4-1.2-4.9-1.4-7.5-1.5c-3.3-0.1-6.5-0.1-9.8-0.2c-3.7-0.1-7.4-0.2-11.1-0.2c-4.1,0-8.2,0.2-12.3,0.4
		c-5.1,0.2-10.3,0.6-15.4,0.8c-3.4,0.2-6.8,0.2-10.2,0.3C137.6,197.1,137.1,196.8,136.3,194.5z"/>
	<path d="M139,170.1c1.5-0.3,3.1-0.7,4.7-0.9c4.3-0.5,8.7-0.9,13-1.4c3.8-0.4,7.6-0.7,11.4-1.1c0.1,0,0.3,0,0.4,0
		c4.2-0.2,8.3-0.4,12.5-0.6c4.5-0.2,9-0.2,13.5-0.3c4-0.1,7.9,0.3,11.8,0.9c2,0.3,4.1,0.7,5.7,2.2c0.6,2.8-1,4.6-3.9,4.4
		c-5-0.5-10-0.3-15,0c-2.9,0.2-5.8,0.1-8.8,0.2c-5.4,0.2-10.8,0.5-16.2,0.7c-0.1,0-0.1,0-0.2,0c-8.9,0.4-17.8,0.7-26.7,0.5
		c-0.2,0-0.4,0-0.6,0c-1.1,0-2-0.4-2.5-1.5C137.7,172,138.1,171.1,139,170.1z"/>
	<path d="M212.2,153c-0.5,1.2-1.5,1.6-2.6,1.8c-2,0.3-4,0.8-5.9,0.9c-3.6,0.2-7.2,0.4-10.8,0.4c-7.8,0.1-15.6,0.1-23.4,0.1
		c-4.1,0-8.2,0.2-12.3,0.2c-3.1,0-6.1-0.3-9.2-0.4c-0.2,0-0.4,0-0.6-0.1c-2.4-0.4-2.9-1.2-2.7-3.7c0.5-1,1.3-1.6,2.4-1.6
		c0.4,0,0.8-0.2,1.2-0.2c2.9-0.2,5.8-0.4,8.7-0.5c4.9-0.2,9.9-0.3,14.8-0.5c3.7-0.1,7.4-0.2,11-0.4c3.6-0.2,7.2-0.5,10.8-0.7
		c4-0.1,8.1-0.4,12.1,0.2c1.2,0.2,2.3,0.3,3.5,0.5C212,149.6,212.5,150.2,212.2,153z"/>
	<path d="M104.6,250.7c-0.5-0.7-1-1.4-1.3-1.9c0.2-1.5,1-2.2,2.1-2.6c3.3-1.2,6.7-1.9,10.1-2.2c3.7-0.3,7.5-0.4,11.2-0.4
		c7.2-0.1,14.3-0.1,21.5-0.1c2.4,0,4.9,0,7.2,0.8c0.4,0.1,0.8,0.3,1.2,0.4c1.9,0.8,2.9,2.1,2.5,4.2c-0.7,1.9-2.2,2.2-4.1,2.2
		c-4.4-0.2-8.9-0.4-13.3-0.5c-4.7-0.1-9.4-0.3-14.2-0.2c-6.8,0-13.6,0.2-20.4,0.3C106.4,250.8,105.7,250.7,104.6,250.7z"/>
	<path d="M104.7,267.8c-0.4-0.6-0.2-1,0.2-1.5c1.1-1.1,2.5-1.7,4-2.1c2.4-0.6,4.8-0.6,7.2-0.4c2.4,0.2,4.8,0.5,7.2,0.7
		c5.2,0.4,10.4,0.7,15.6,0.9c2.4,0.1,4.9,0.3,7.3,0.3c1.5,0,3-0.3,4.6-0.3c0.9,0,1.8,0.2,2.7,0.3c1.9,0.2,2.9,1.2,3.1,3.1
		c-0.8,2.9-3.3,3.6-5.9,4.1c-3.9,0.7-7.7,0.2-11.6-0.3c-4.5-0.7-9.1-1.2-13.6-1.8c-4-0.5-8-1-12-1.5c-1.4-0.2-2.8-0.3-4.1-0.4
		c-0.8-0.1-1.7-0.1-2.5-0.3C106.2,268.3,105.4,268,104.7,267.8z"/>
</g>
</svg>
