<?xml version="1.0" encoding="utf-8"?>
<!-- Generator: Adobe Illustrator 21.0.2, SVG Export Plug-In . SVG Version: 6.00 Build 0)  -->
<svg version="1.1" id="Слой_1" xmlns="http://www.w3.org/2000/svg" xmlns:xlink="http://www.w3.org/1999/xlink" x="0px" y="0px"
	 viewBox="0 10 288 480" style="enable-background:new 0 0 288 560;" xml:space="preserve" fill="currentcolor">

<g>
	<path fill="currentcolor" d="M10.7,277.5c0.4-1.1,1.3-2.1,1.3-3.2c1.2-29,16.8-47.3,43.4-56.8c7.1-2.6,14.7-3.8,21.8-5.6c-1.6-1-3.8-2.3-6.3-3.8
		c-0.2-1.1-0.5-2.6-0.8-4.4c-7.9-4.6-16-9.3-23.8-13.8c0.8-8.8,1.3-9.5,16.9-21.4c10.4,0,21.1,0,32.4,0c7.1,8.4,17.3,12.7,27.4,17.8
		c-4.6,6.9-13.6,7.8-17.4,13.9c-1.4,3.8-2.6,7.1-3.9,10.3c11.4,2.3,22.8,4.5,34.6,6.9c8.2-6,17.3-10.9,27.4-14
		c19.3-5.8,38.2-4.8,56.6,3.7c29.9,13.9,49.1,36.6,56.8,68.8c4.1,17.2,2.3,34-4.5,50.1c-4.9,11.6-13.8,19.6-25.1,24.6
		c-12.6,5.6-25.9,8.8-39.8,10.1c-23.3,2.1-45-2.4-65.7-12.3c-8,2.8-15.8,6.3-23.9,8c-28.7,6.1-55.3,1.5-78.7-16.9
		c-16.8-13.1-25.2-31-27.4-52c-0.2-1.9-0.9-3.7-1.3-5.5C10.7,280.6,10.7,279,10.7,277.5z M167.5,260.5c0.1,1.9,0.2,3.9,0.3,5.8
		c0.8-2,2-4.1-0.5-5.7c0-10.3-5.1-18.4-11.2-26c-6.1-7.6-14.3-12.1-23.3-15.3c-10.1-3.6-20.3-5.9-31.2-5.8c1.8,1.8,3.6,3.7,5.8,4.2
		c7.3,1.7,14.2,5.5,22.2,4.5c1.6-0.2,3.5,0.6,5.1,1.2c15,4.8,23.9,15.6,29.5,29.8C165.2,255.6,166.4,258.1,167.5,260.5z
		 M154.9,320.6c0.2-0.7,0.2-1.6,0.6-2.1c6-8.4,9.6-17.7,11.1-28c1.5-10,0.5-22-3.8-32.4c2,26.8-4.8,50.4-22.2,71.2
		c1.9,0.1,2.9,0.2,3.8,0.3c-0.3,3.1,1.5,4.5,4.2,5c8-6.1,14.5-17.3,15-25.6C160.6,312.7,160,318.3,154.9,320.6z M169.1,208.3
		c-2.3,0.4-5.4-1.2-6.4,2.5c-1.4,0.2-2.8,0.4-4.2,0.6c-6.6,0.6-12.5,3-18.1,7.9c3,1.3,5.3,2.3,7.7,3.3c13.7-8.5,28.5-10.3,44-6.3
		c20.6,5.2,39.2,14.2,53.9,30.1c16.4,17.8,21.8,38.6,16.6,62.2c-4.7,21.1-17.5,35.1-37.8,42.3c-1.3,0.4-2.4,1.3-3.6,2
		c-2.4,0-4.9,0-7.3,0c0,0.5,0.1,1,0.1,1.5c2.3-0.8,5,1.5,7.1-1.7c2.5-0.3,5.2,0,7.5-0.9c6.9-2.5,13.9-5.1,20.5-8.3
		c9.4-4.5,15.7-12.2,19.5-21.7c6.6-17,7.1-34.5,1.5-51.7c-9.2-28.3-27.9-48.1-55.5-59.5c-13.8-5.7-28-7.2-42.7-3.7
		c-1.1,0.3-2,1.1-3,1.6L169.1,208.3z M152,224.2c0.6,1,0.8,1.5,1.2,1.8c16.6,12.1,20.3,29.9,21.2,48.6c0.3,6.8-1.6,13.6-2.2,20.4
		c-1.5,16.2-6.7,30.8-18.2,42.9c0.8,0.5,1.3,1.1,2,1.4c18.7,8.9,38.2,12.8,58.6,8.6c14.9-3.1,27.9-9.7,36.1-23.4
		c5.5-9.2,8-19.3,8.5-29.8c0.9-17.2-5.4-32.1-17.1-44.4c-17.1-18.1-38.6-28.1-62.8-32.3C170,216.4,160.7,218.4,152,224.2z
		 M121.7,333.9c-28.4-29.9-26.8-75.6,2.1-106.4c-9.6-4.8-23.4-7.7-36.2-7.4c-20,0.5-36.8,7.7-49.6,23.2
		c-14.7,17.8-17.4,38-10.4,59.7c5.2,16.1,17.2,25.4,32.5,31.2c15.2,5.7,30.9,6.1,46.8,4.4C111.6,338,116.8,337.2,121.7,333.9z
		 M137,325.3c15.5-17.2,21.4-37.2,21.2-59.3c-0.1-9.8-4-18.3-10.5-25.5c-2.4-2.6-4.9-5-8.4-5.8C114.4,255.2,113.6,304.8,137,325.3z
		 M91.4,344.6c-12-0.6-23-2.8-34-6.7c-27.5-10-39.2-35.4-37.1-60.5c2.7-32.3,27.8-53.7,52.6-59.7c2.7-0.7,5.4-1.1,7.7-3.1
		c-2.1-0.4-4.1-0.5-6-0.1c-12.6,2.6-24.5,6.7-35.1,14.4c-11,7.9-18.3,18.2-21.5,31.5c-2.2,9.3-3,18.4-1.5,28
		c3.8,23.6,14.9,42.1,36,53.9c16.7,9.3,34.6,12.9,53.7,10.9c9.5-1,18.5-3.3,27.1-7.4c0.6-0.3,0.9-1,1.6-1.8c-1.9-1.2-3.5-2.3-5-3.2
		c-4.1,1.5-7.9,3.1-11.8,4.2c-11.5,3.3-23.2,0.4-34.9,0.4C86,345.1,88.7,344.9,91.4,344.6z M128.1,228.2c-3.4,4.1-6.9,7.5-9.6,11.5
		c-15.4,23.3-18,47.9-6.2,73.3c5.7,12.4,15.9,21.2,27.4,28.2c13.7,8.3,28.9,12.6,44.7,14.3c8.8,0.9,17.8,0.7,26.6-0.7
		c-3.5-0.5-7.1-0.6-10.6-0.5c-18.3,0.5-35.4-4-51.2-13c-15.2-8.7-26-21.2-30.7-38.4c-3.1-11.5-3.4-23.1-1.6-34.8
		c1.9-12.1,6.7-22.9,15.2-31.9c1.3-1.4,2.6-2.7,4.1-4.2C133.5,230.7,131.2,229.6,128.1,228.2z M88.9,200.3
		c0.3-6.4,0.5-12.6-2.4-18.8c-1.5-0.2-2.9-0.4-4.7-0.6c1,1.9,1.8,3.3,3.2,5.9c-4.1-2.3-6.8-4.7-9.8-5.2c-3.3-0.6-6.9,0.5-10.3,0.9
		c-5.1,0.5-9.5,2.7-14.9,5.7c10.3,6.4,19.2,13.5,30.9,15.6c0.6-1,1.1-1.8,1.5-2.4c-1.4-2.7-2.7-5.2-4-7.6
		C84.1,199.1,84.1,199.1,88.9,200.3z M99.5,183c-1.2,1.7-1.7,2.3-2.2,3c-3.2-3.5-3.2-3.5-7.1-2.8c0.6,5.7,1.3,11.4,1.9,17.1
		c3.6-1.2,6.9-2.3,10.5-3.4c4.3-2.8,8.9-5.9,14.4-9.5C110.7,185.7,105.1,184.4,99.5,183z M68.1,176c-1.8-1.6-3.2-2.8-4.6-4
		c-5,3-10,5.4-12.5,10.9C56.4,180.2,63,180.8,68.1,176z M86.2,177.4c2.6,0,5,0,7.8,0c1.8,1.4,4.1,3,7.1,1.4
		c-4.7-5.3-5.4-5.6-10.1-5.6C88.9,173.3,86.9,173.3,86.2,177.4z M125.4,338.8c-4.8,1.2-9.5,2.6-14.4,3.5c-5.1,0.9-10.2,1.3-15.3,1.9
		C106.1,345.8,116.2,345.2,125.4,338.8z M91.1,209.5c7.7-1.7,7.7-1.7,9.1-7.4C95.7,202.2,93.9,205.2,91.1,209.5z M77.3,177
		c2.5,0.9,4.6,1.1,7.8-1C81.6,174.6,79.2,173.3,77.3,177z M70,176.3c0.3,0.4,0.6,0.9,0.9,1.3c1.4-0.1,2.7-0.2,4.4-0.4
		c-0.2-1.6-0.3-2.6-0.6-5.5C72.5,173.9,71.3,175.1,70,176.3z M84.8,208.3c2.4-2.5,2.4-2.5,0.2-4.5C84.9,205.4,84.9,206.6,84.8,208.3
		z"/>
	<path d="M155.2,320.3c-0.6,3.7-2.9,5.7-6.4,6.4C150.9,324.6,153.1,322.5,155.2,320.3z"/>
	<path d="M149.1,326.5c-0.9,2.2-2.4,3.4-4.9,3.3C145.1,327.6,146.7,326.4,149.1,326.5z"/>
</g>
</svg>
