<?xml version="1.0" encoding="utf-8"?>
<!-- Generator: Adobe Illustrator 21.0.2, SVG Export Plug-In . SVG Version: 6.00 Build 0)  -->
<svg version="1.1" id="Слой_1" xmlns="http://www.w3.org/2000/svg" xmlns:xlink="http://www.w3.org/1999/xlink" x="0px" y="0px"
	 viewBox="0 0 288 560" style="enable-background:new 0 0 288 560;" xml:space="preserve">
<g>
	<path d="M166.2,350.1c-4.4,0.3-8,0.9-11.7-1.9c1.2-9.5,2.7-19.1,3.7-28.8c0.8-7.8,1.5-15.6,1.2-23.4c-0.1-3.4-1.3-6.8-0.9-10.3
		c0.4-4,1-7.9,1.5-11.8c0.5-3.6,0.6-7.2-0.1-11.2c-5.8,0.5-11.4,0.9-16.9,1.3c-1.3,5.1-1.9,10.1-3.7,14.6c-1.8,4.4-5.1,8.1-8.6,11.9
		c-0.7-1.2-1.2-2-1.9-3.2c5.2-4.8,9.4-10.1,10.3-17.2c0.2-1.7-0.1-3.5-0.1-5.4c-5.3-1.4-10.3-0.1-15.7-0.6c0-1.9,0-3.5,0-5.1
		c0-13,0-26.1,0-39.1c0-2.8-0.5-5.6-0.6-8.4c-0.1-1.1-0.1-2.4,0.3-3.4c1.2-4,1.3-8.2,1.4-12.3c0.2-8,0.7-16,1-24
		c0.1-2.3,0-4.7,0-7.1c-2.4-0.7-4.5-1.3-6.8-1.9c0.2-2.6,1.6-4.3,2.7-6.1c2.3-3.5,4.7-6.9,7-10.4c5.6-8.3,11.1-16.6,15-25.9
		c0.7-1.6,1.2-3.5,3.2-4.6c2.2,1.2,3.8,3.2,5.2,5.2c2.9,4.2,5.9,8.5,8.3,13c4.5,8.5,8.7,17.2,13,25.9c0.9,1.9,1.5,3.9,2.6,6.6
		c-2.7,0-4.7,0-6.9,0c-0.2,1.8-0.4,3.1-0.4,4.4c0,4.8-0.1,9.7,0.2,14.5c0.3,5.3,1,10.6,1.6,15.9c0.1,1.3,0.3,2.7,0.3,4
		c0,9,0.2,18-0.1,27.1c-0.2,5.6-1.1,11.2-1.6,16.9c-0.2,1.8,0.1,3.7,0.1,5.5c0.1,3.3,0.1,6.6,0.1,9.9c0,1.5-0.3,3-0.4,4.5
		c-0.8,16.1-1.1,32.2-1,48.4c0,3.6-0.9,7.3-1,10.9c-0.2,5.5,0,11-0.1,16.5C166.3,346.4,166.2,348,166.2,350.1z M146.5,119.8
		c-1.1,2.2-2.1,4.3-3.1,6.3c-1.2,2.5-2.2,5.3-3.7,7.6c-4.8,7.4-9.7,14.7-14.6,22.1c-0.8,1.2-2,2.2-1.5,4.3c15.5,1.4,31,1.6,47,2.7
		c-1.6-3.8-2-7.4-4.9-9.8c-2.2,0-4.4,0.1-6.5,0c-0.6,0-1.2-0.7-2.4-1.4c2.8-0.5,4.7-0.8,6.7-1.2c0.4-0.1,0.7-0.6,1.4-1.3
		c-1-1.1-1.9-2.2-2.5-3c-2.5-0.1-4.5-0.2-7.7-0.3c2.7-1.6,4.4-2.6,6-3.6c-1.6-4.2-5-0.2-7.4-2.2c0.8-0.7,1.4-1.4,2.1-1.9
		c0.7-0.6,1.5-1.1,2.2-1.6c-0.5-2.6-2.2-2.5-3.9-2.5c-0.4,0-0.8-0.4-1.4-0.7c0.8-1.2,1.6-2.2,2.2-3.2
		C152.7,125.9,150.3,122.6,146.5,119.8z M158.4,215.1c2.1-0.5,2.2-1.9,2.1-3.5c-0.3-4.1-0.6-8.3-1-12.4c-0.3-3.3-0.7-6.5-1.1-9.8
		c-8.1-7.4-16-14.5-23.9-21.6c-0.8-0.7-1.9-1-3.5-1.8c-0.2,6.7-0.4,12.6-0.7,18.6c-0.2,4.7,1.8,8.3,5.4,11.2
		c3.2,2.6,6.5,5.2,9.6,7.9C149.8,207.4,154.1,211.3,158.4,215.1z M162.3,164.8c-2.7,3.7-3,7.6-2.6,11.6c0.5,6.3,2,12.4,2.1,18.8
		c0.2,6.8,1.4,13.6,1.5,20.4c0.3,14.7,0.3,29.4,0.2,44.1c0,4.8-0.7,9.6-0.9,14.4c-0.2,3.5-0.2,7-0.1,10.5c0.1,2.1,0.8,4.2,0.8,6.3
		c-0.2,6.8-0.5,13.6-1,20.4c-0.3,4.5-1.1,8.9-1.6,13.3c-0.5,4.3-0.8,8.6-1.2,12.9c-0.2,2.1-0.5,4.3-0.7,6.4c0,0.3,0.1,0.6,0.3,1.6
		c0.8,0.3,1.9,0.7,3.4,1.3c0.4-1.9,1-3.3,1-4.8c0.5-10.3,0.9-20.6,1.2-31c0.4-12.8,0.7-25.7,1.1-38.5c0-0.7,0-1.3,0.1-2
		c0.2-4.6,0.6-9.3,0.7-13.9c0.2-8.5-0.1-17,0.6-25.4c0.9-10.5,1.7-20.9,0.4-31.3c-1.3-9.8-2-19.5-1.8-29.4c0-1.3-0.1-2.6-0.2-4.1
		C164.3,166,163.4,165.4,162.3,164.8z M130.5,240.9c1.5,1.8,3.2,3.8,4.9,5.8c3.3,3.7,6.8,7.3,10.1,11c1.8,2.1,4,2.8,6.7,2.4
		c2.1-0.3,4.3-0.6,6.4-1c0.3,0,0.6-0.3,1.3-0.7c0.4-1,1-2.3,1.3-3c-0.2-4.5-2.2-7.2-4.8-9.7c-1.7-1.6-3.1-3.5-4.7-5.1
		c-6.5-6.7-13-13.3-19.5-20c-0.2-0.2-0.6-0.1-0.9-0.2c-0.2,0.2-0.7,0.4-0.7,0.6C130.5,227.3,130.5,233.7,130.5,240.9z M130.9,195.6
		c0.9,7.4-0.9,13.9,0.3,19c10.3,10.8,19.6,20.5,29.2,30.5c0-8.4,0-16.4,0-24.4c-1.6-1.2-3.1-2.4-4.8-3.7c-0.7,1.5-1.3,2.7-1.9,4
		c-0.7-0.2-1.3-0.3-2-0.5c0.3-3,2.5-6.3-1.3-8.5c-1.1,0.6-2,1.1-3,1.6c-1.7-2.5,0.2-6.4-3.5-7.4c-1,0.6-1.9,1.2-3.2,2
		c-0.2-2.1-0.3-3.7-0.4-5.3c0-0.1-0.2-0.3-0.4-0.7c-0.5-0.3-1.2-0.7-1.9-1.1c-0.6,0.3-1.2,0.7-1.8,0.9c-0.7,0.3-1.4,0.4-2.2,0.6
		C133.4,198.2,133.4,198.2,130.9,195.6z M136.9,164c-0.1,0.4-0.3,0.7-0.4,1.1c6.8,6.2,13.6,12.4,20.5,18.8c0.9-5.7,0.9-14.9,0-18.7
		C150.3,164.8,143.6,164.4,136.9,164z M142.7,259.9c-3.2-6.2-8.1-10.3-13-15c-1.5,5.3-2.1,10-1,15.1
		C133.4,260.2,137.8,260.8,142.7,259.9z"/>
</g>
</svg>
