<?xml version="1.0" encoding="utf-8"?>
<!-- Generator: Adobe Illustrator 21.0.2, SVG Export Plug-In . SVG Version: 6.00 Build 0)  -->
<svg version="1.1" id="OBJECTS" xmlns="http://www.w3.org/2000/svg" xmlns:xlink="http://www.w3.org/1999/xlink" x="0px" y="0px"
	 viewBox="0 0 800 800" style="enable-background:new 0 0 800 800;" xml:space="preserve">
<style type="text/css">
	.st0{fill:#ece8d5;stroke:#ece8d5;stroke-miterlimit:10;}
</style>
<g>
	<g>
		<g>
			<g>
				<path class="st0" d="M308.5-678.1c-0.6,0-1.1,0.1-1.6,0.4"/>
			</g>
		</g>
		<g>
			<g>
				<g>
					<path class="st0" d="M307.8,399.9c0.4-8.9,2.2-18.4,9.9-23.8c6.1-4.3,14-2.9,20.2,0.2c11.9,6,19.4,21.8,19.1,34.8
						c-0.6,22.2-32.1,21.3-46.8,16.9c-9.9-3-19.1-9-24.4-18.1c-5.4-9.4-3.4-21.1-0.5-31c4.3-15.1,15-23.9,30.8-24
						c18.2-0.2,36.6,7.8,52.9,15c20.2,8.9,39.7,19.3,59.5,29c17,8.2,34.6,16.7,53.1,20.5c12.6,2.6,27.6,2.4,36.2-8.7
						c7.2-9.2,9.3-23.2,5.6-34.1c-6.2-18.2-28.9-21.8-45.1-17c-0.6,0.2-0.4,1.1,0.3,1c18.4-4.3,41.6,2.1,41.7,24.4
						c0,7.7-3.3,16.7-8.9,22.1c-9.8,9.4-26.7,5-38.1,1.6c-40.2-12.2-75.9-36.8-114.9-52.2c-15.8-6.2-33.1-11.6-50.2-9.3
						c-15.6,2.1-25.8,13.9-30.3,28.3c-6.5,20.7-3,40.9,15.9,53.2c15.8,10.4,39.6,13.3,56.4,4c19.9-11.1,13.1-36.3,1-50.7
						c-6.8-8.2-17.8-13.5-28.5-10.9c-12.6,3-15.7,17.7-15.7,28.7C307,400.4,307.8,400.4,307.8,399.9L307.8,399.9z"/>
				</g>
				<g>
					<path class="st0" d="M293.1,356.9c10.1-5.5,19.7-10,31.1-12c10.6-1.8,21.6-1.4,32.2,0c24,3.3,45.9,13.8,67,25.2
						c18.5,10,36.4,21,55.9,29.1c11.3,4.7,33,14.4,42.6,2c0.5-0.7-0.3-1.5-0.9-0.9c-13.6,11.5-39.9-3.4-52.9-10.5
						c-21.2-11.4-41.1-25-63-35.1c-18.1-8.4-37.4-14.4-57.5-15.5c-18.7-1-42.1,2.3-54.8,17.5C292.8,356.8,292.9,357,293.1,356.9
						L293.1,356.9z"/>
				</g>
			</g>
			<g>
				<path class="st0" d="M309.3,386.2c-1.8,5.6-3.8,11.4-1.9,17.2c1.9,5.6,8.1,7.4,13.4,6.3c5.1-1,9.7-7,8.3-12.2
					c-0.6-2.4-1.7-4.9-3.8-6.4c-4.8-3.5-12.1-6.3-9.8-13.9c0.1-0.4-0.4-0.6-0.7-0.3c-1.9,2.5-1.9,5.7-0.2,8.5
					c2.9,4.8,9.2,6.7,9.7,12.8c0.7,8.7-12.5,9.4-15.2,2.2C307.6,396.1,309.7,390.6,309.3,386.2C309.4,386.2,309.3,386.1,309.3,386.2
					L309.3,386.2z"/>
			</g>
		</g>
	</g>
</g>
</svg>
